<svg width="20" height="20" viewBox="0 0 20 20" fill="none" xmlns="http://www.w3.org/2000/svg">
<path d="M13.8528 2.50329L11.854 2.5C9.60842 2.5 8.15723 4.02942 8.15723 6.3966V8.1932H6.14754C5.97388 8.1932 5.83325 8.33782 5.83325 8.51621V11.1193C5.83325 11.2977 5.97404 11.4421 6.14754 11.4421H8.15723V18.0105C8.15723 18.1889 8.29786 18.3333 8.47152 18.3333H11.0936C11.2673 18.3333 11.4079 18.1887 11.4079 18.0105V11.4421H13.7577C13.9313 11.4421 14.072 11.2977 14.072 11.1193L14.0729 8.51621C14.0729 8.43056 14.0397 8.34853 13.9809 8.28791C13.922 8.2273 13.8419 8.1932 13.7585 8.1932H11.4079V6.6702C11.4079 5.93819 11.5777 5.56658 12.506 5.56658L13.8525 5.56609C14.026 5.56609 14.1666 5.42147 14.1666 5.24324V2.82614C14.1666 2.64808 14.0261 2.50362 13.8528 2.50329Z" fill="#9D097C"/>
</svg>
