<svg width="20" height="20" viewBox="0 0 20 20" fill="none" xmlns="http://www.w3.org/2000/svg">
<path fill-rule="evenodd" clip-rule="evenodd" d="M2.91675 9.99984C2.91675 8.52799 2.91675 7.79207 3.05673 7.18353C3.52884 5.13118 5.13142 3.5286 7.18377 3.05649C7.79231 2.9165 8.52824 2.9165 10.0001 2.9165C11.4719 2.9165 12.2079 2.9165 12.8164 3.05649C14.8687 3.5286 16.4713 5.13118 16.9434 7.18353C17.0834 7.79207 17.0834 8.52799 17.0834 9.99984C17.0834 11.4717 17.0834 12.2076 16.9434 12.8161C16.4713 14.8685 14.8687 16.4711 12.8164 16.9432C12.2079 17.0832 11.4719 17.0832 10.0001 17.0832C8.52824 17.0832 7.79231 17.0832 7.18377 16.9432C5.13142 16.4711 3.52884 14.8685 3.05673 12.8161C2.91675 12.2076 2.91675 11.4717 2.91675 9.99984ZM10.0001 6.24984C7.92914 6.24984 6.25008 7.9289 6.25008 9.99984C6.25008 12.0708 7.92914 13.7498 10.0001 13.7498C12.071 13.7498 13.7501 12.0708 13.7501 9.99984C13.7501 7.9289 12.071 6.24984 10.0001 6.24984ZM10.0001 12.3436C8.70821 12.3436 7.65633 11.2917 7.65633 9.99984C7.65633 8.70702 8.70821 7.65609 10.0001 7.65609C11.292 7.65609 12.3438 8.70702 12.3438 9.99984C12.3438 11.2917 11.292 12.3436 10.0001 12.3436ZM14.531 5.96859C14.531 6.24456 14.3073 6.46828 14.0313 6.46828C13.7554 6.46828 13.5317 6.24456 13.5317 5.96859C13.5317 5.69262 13.7554 5.4689 14.0313 5.4689C14.3073 5.4689 14.531 5.69262 14.531 5.96859Z" fill="#9D097C"/>
</svg>
