<svg width="50" height="52" viewBox="0 0 50 52" fill="none" xmlns="http://www.w3.org/2000/svg">
<g clip-path="url(#clip0_307_389)">
<path fill-rule="evenodd" clip-rule="evenodd" d="M0 16.6133L4.4 30.9466C24.5067 36.2533 34.4 34.32 48.6933 24.7466C32.7333 31.7466 14.96 27.0133 0 16.6133Z" fill="#F7D161"/>
<path fill-rule="evenodd" clip-rule="evenodd" d="M24.3466 1.2666C31.2133 1.2666 36.7733 6.8266 36.7733 13.6933C36.7733 20.5466 31.2133 26.1199 24.3466 26.1199C17.4799 26.1199 11.9199 20.5599 11.9199 13.6933C11.9199 6.8266 17.4799 1.2666 24.3466 1.2666Z" fill="#BB4F3B"/>
<path fill-rule="evenodd" clip-rule="evenodd" d="M25.1865 4.89355L18.4799 5.60022C14.4799 13.3602 14.8399 17.2002 18.7865 22.7869C16.2399 16.5736 18.9332 10.6269 25.1865 4.89355Z" fill="#F7D161"/>
<path d="M0.120117 38.8667H1.74678V40.8534L3.45345 38.8667H5.61345L3.69345 40.8534L5.69345 44.1334H3.69345L2.58678 41.9734L1.74678 42.8534V44.1334H0.120117V38.8667ZM6.21345 38.8667H8.34678L9.17345 42.0667L10.0001 38.8667H12.1335V44.12H10.8001V40.1067L9.77345 44.12H8.57345L7.54678 40.1067V44.12H6.21345V38.8667ZM13.1735 38.8667H17.2001V40H14.8001V40.92H16.8401V41.9867H14.8001V44.1334H13.1735V38.8667ZM17.6801 41.64H19.8001V42.7734H17.6801V41.64ZM26.0268 45.2667H24.7201V44.12H21.3601V45.2667H20.0535V42.9067H20.6001C20.9068 42.0534 21.0535 41.1067 21.0535 40.04V38.8667H25.4535V42.9067H26.0268V45.2667ZM23.8268 42.92V40.16H22.5201V40.2267C22.5201 40.96 22.4001 41.8534 22.1468 42.92H23.8268ZM26.6535 38.8667H31.0001V39.9867H28.2801V40.8267H30.8001V41.8934H28.2801V42.9334H31.0801V44.12H26.6535V38.8667ZM31.9468 38.8667H34.0801L34.9068 42.0667L35.7335 38.8667H37.8668V44.12H36.5335V40.1067L35.5068 44.12H34.3068L33.2801 40.1067V44.12H31.9468V38.8667ZM38.8935 38.8667H43.2401V39.9867H40.5201V40.8267H43.0535V41.8934H40.5201V42.9334H43.3201V44.12H38.8935V38.8667ZM43.7068 38.8667H45.4668L46.2001 41.0267L46.9201 38.8667H48.5735L46.8401 42.9334C46.6935 43.2667 46.5735 43.5067 46.4668 43.6667C46.3601 43.8267 46.2001 43.96 46.0001 44.0667C45.8001 44.1734 45.5068 44.2267 45.1468 44.2267C44.9601 44.2267 44.6268 44.2 44.1601 44.1467V43.0534C44.4401 43.08 44.6401 43.0934 44.7601 43.0934C45.1335 43.0934 45.3601 42.96 45.4401 42.68L43.7068 38.8667Z" fill="black"/>
<path d="M43.8664 50.7999V49.6532H43.2265C43.1998 50.2132 43.1198 50.5866 42.9598 50.7999H43.8664ZM44.1731 51.2266H42.6531V51.7599H42.2265V50.7999H42.4398C42.5331 50.6932 42.5998 50.5466 42.6665 50.3199C42.7198 50.1066 42.7598 49.7332 42.7731 49.2132H44.3998V50.7999H44.6131V51.7732H44.1731V51.2266ZM40.1331 49.2132H40.6665V49.9466H41.4264V49.2132H41.9598V51.2266H41.4264V50.3866H40.6665V51.2266H40.1331V49.2132ZM38.2131 50.2266C38.2131 50.4266 38.2664 50.5732 38.3598 50.6799C38.4531 50.7866 38.5731 50.8399 38.7064 50.8399C38.8398 50.8399 38.9598 50.7866 39.0531 50.6799C39.1464 50.5732 39.1998 50.4132 39.1998 50.2132C39.1998 50.0132 39.1464 49.8666 39.0531 49.7599C38.9598 49.6532 38.8398 49.5999 38.7064 49.5999C38.5731 49.5999 38.4531 49.6532 38.3598 49.7599C38.2531 49.8666 38.2131 50.0266 38.2131 50.2266ZM37.6665 50.1999C37.6665 50.0266 37.7064 49.8532 37.7998 49.6799C37.8931 49.5199 38.0131 49.3866 38.1731 49.3066C38.3331 49.2132 38.5064 49.1732 38.7064 49.1732C39.0131 49.1732 39.2664 49.2666 39.4531 49.4666C39.6531 49.6666 39.7464 49.9199 39.7464 50.2132C39.7464 50.5199 39.6531 50.7732 39.4531 50.9732C39.2531 51.1732 39.0131 51.2799 38.7064 51.2799C38.5198 51.2799 38.3464 51.2399 38.1731 51.1599C37.9998 51.0799 37.8798 50.9599 37.7864 50.7866C37.7064 50.6266 37.6665 50.4266 37.6665 50.1999ZM35.5731 50.4399V49.1999C35.3331 49.1999 35.1598 49.2532 35.0664 49.3599C34.9598 49.4666 34.9064 49.6266 34.9064 49.8399C34.9064 50.2399 35.1331 50.4399 35.5731 50.4399ZM36.1198 50.4399C36.2664 50.4399 36.3865 50.4132 36.4931 50.3599C36.5998 50.3066 36.6798 50.2399 36.7198 50.1599C36.7598 50.0799 36.7864 49.9599 36.7864 49.7999C36.7864 49.3999 36.5598 49.1999 36.1198 49.1999V50.4399ZM36.1198 50.9066V51.2266H35.5731V50.9066C35.1331 50.8932 34.8131 50.7866 34.6264 50.5732C34.4398 50.3732 34.3465 50.1199 34.3465 49.8132C34.3465 49.4932 34.4398 49.2399 34.6264 49.0399C34.8131 48.8399 35.1331 48.7466 35.5598 48.7199V48.4399H36.1064V48.7199C36.5464 48.7332 36.8664 48.8399 37.0398 49.0399C37.2264 49.2399 37.3198 49.4932 37.3198 49.7999C37.3198 50.1066 37.2264 50.3599 37.0398 50.5599C36.8798 50.7866 36.5731 50.8932 36.1198 50.9066ZM32.2664 48.3999H32.5198C32.5064 48.5732 32.4398 48.7066 32.3331 48.7999C32.2264 48.8932 32.0931 48.9466 31.9198 48.9466C31.7464 48.9466 31.6131 48.8932 31.5064 48.7999C31.3998 48.7066 31.3464 48.5732 31.3198 48.3999H31.5864C31.5998 48.4932 31.6264 48.5599 31.6798 48.5999C31.7331 48.6399 31.8131 48.6666 31.9198 48.6666C32.0264 48.6666 32.1064 48.6399 32.1598 48.5999C32.2264 48.5599 32.2531 48.4932 32.2664 48.3999ZM30.9864 49.2132H31.4931V50.4799L32.3064 49.2132H32.8264V51.2266H32.3198V49.9332L31.4931 51.2266H30.9864V49.2132ZM29.9331 49.2132H30.4664V51.2266H29.9331V49.2132ZM28.2264 50.8932H28.7198C28.8531 50.8932 28.9464 50.8666 28.9998 50.8266C29.0531 50.7866 29.0931 50.7199 29.0931 50.6266C29.0931 50.5332 29.0531 50.4666 28.9731 50.4266C28.8931 50.3866 28.7598 50.3732 28.5731 50.3732H28.2264V50.8932ZM27.6931 49.2132H28.2264V50.0532H28.7598C28.9731 50.0532 29.1331 50.0666 29.2398 50.0932C29.3464 50.1199 29.4398 50.1866 29.5198 50.2932C29.5998 50.3866 29.6398 50.5066 29.6398 50.6399C29.6398 50.8399 29.5731 50.9866 29.4398 51.0799C29.3064 51.1732 29.1064 51.2266 28.8398 51.2266H27.7064V49.2132H27.6931ZM25.3198 49.2132H25.8531V49.9466H26.6131V49.2132H27.1465V51.2266H26.6131V50.3866H25.8531V51.2266H25.3198V49.2132ZM23.4931 50.8932H23.9198C24.0664 50.8932 24.1864 50.8799 24.2531 50.8399C24.3198 50.7999 24.3598 50.7332 24.3598 50.6399C24.3598 50.5466 24.3198 50.4799 24.2398 50.4399C24.1598 50.3999 23.9998 50.3866 23.7731 50.3866H23.5065V50.8932H23.4931ZM23.4931 50.0532H23.8398C23.9998 50.0532 24.1198 50.0266 24.1998 49.9866C24.2798 49.9466 24.3064 49.8799 24.3064 49.7866C24.3064 49.7066 24.2664 49.6399 24.1998 49.5999C24.1331 49.5599 24.0131 49.5466 23.8264 49.5466H23.4798V50.0532H23.4931ZM22.9598 49.2132H24.1331C24.3731 49.2132 24.5464 49.2532 24.6665 49.3466C24.7864 49.4399 24.8398 49.5599 24.8398 49.7466C24.8398 49.8532 24.8131 49.9599 24.7465 50.0399C24.6798 50.1199 24.5998 50.1732 24.5065 50.2132C24.6398 50.2532 24.7465 50.3066 24.8131 50.3999C24.8798 50.4932 24.9198 50.5999 24.9198 50.7066C24.9198 50.8666 24.8665 50.9866 24.7465 51.0932C24.6264 51.1866 24.4664 51.2399 24.2398 51.2399H22.9731V49.2132H22.9598ZM20.5465 49.2132H21.0531V50.4799L21.8664 49.2132H22.3864V51.2266H21.8798V49.9332L21.0531 51.2266H20.5465V49.2132ZM18.4265 49.2132H20.2531V49.6399H19.5998V51.2266H19.0665V49.6399H18.4265V49.2132ZM17.6131 50.2666C17.5465 50.2932 17.4398 50.3199 17.2931 50.3466C17.1465 50.3732 17.0531 50.4132 16.9998 50.4399C16.9331 50.4932 16.8931 50.5466 16.8931 50.6266C16.8931 50.7066 16.9198 50.7599 16.9731 50.8266C17.0265 50.8799 17.0931 50.9066 17.1865 50.9066C17.2798 50.9066 17.3731 50.8799 17.4665 50.8132C17.5331 50.7599 17.5731 50.7066 17.5998 50.6399C17.6131 50.5999 17.6265 50.5066 17.6265 50.3866V50.2666H17.6131ZM16.8931 49.8266L16.4131 49.7332C16.4665 49.5332 16.5598 49.3999 16.6931 49.3066C16.8265 49.2132 17.0265 49.1599 17.2798 49.1599C17.5198 49.1599 17.6931 49.1866 17.8131 49.2399C17.9331 49.2932 18.0131 49.3732 18.0531 49.4532C18.1065 49.5466 18.1198 49.6932 18.1198 49.9332V50.5599C18.1198 50.7332 18.1331 50.8666 18.1465 50.9466C18.1598 51.0266 18.1998 51.1199 18.2398 51.2132H17.7065C17.6931 51.1732 17.6798 51.1199 17.6531 51.0532C17.6398 51.0266 17.6398 50.9999 17.6398 50.9866C17.5465 51.0799 17.4531 51.1466 17.3465 51.1866C17.2398 51.2266 17.1331 51.2532 17.0131 51.2532C16.7998 51.2532 16.6398 51.1999 16.5198 51.0799C16.3998 50.9732 16.3465 50.8266 16.3465 50.6532C16.3465 50.5332 16.3731 50.4399 16.4265 50.3466C16.4798 50.2532 16.5598 50.1866 16.6531 50.1466C16.7465 50.0932 16.8931 50.0532 17.0798 50.0266C17.3331 49.9866 17.5065 49.9332 17.5998 49.8932V49.8666C17.5998 49.7599 17.5731 49.6932 17.5198 49.6532C17.4665 49.6132 17.3731 49.5866 17.2398 49.5866C17.1465 49.5866 17.0665 49.5999 17.0131 49.6399C16.9731 49.6666 16.9331 49.7332 16.8931 49.8266ZM14.6398 50.1866C14.6398 50.4132 14.6798 50.5866 14.7731 50.6932C14.8665 50.7999 14.9731 50.8532 15.1065 50.8532C15.2265 50.8532 15.3331 50.7999 15.4131 50.7066C15.4931 50.6132 15.5331 50.4399 15.5331 50.2132C15.5331 49.9999 15.4931 49.8399 15.3998 49.7466C15.3198 49.6399 15.2131 49.5999 15.0798 49.5999C14.9465 49.5999 14.8398 49.6532 14.7598 49.7466C14.6798 49.8399 14.6398 49.9999 14.6398 50.1866ZM14.1065 49.2132H14.5998V49.5066C14.6665 49.3999 14.7465 49.3199 14.8665 49.2532C14.9731 49.1866 15.0931 49.1599 15.2265 49.1599C15.4665 49.1599 15.6531 49.2532 15.8265 49.4399C15.9865 49.6266 16.0665 49.8799 16.0665 50.2132C16.0665 50.5466 15.9865 50.8132 15.8265 50.9999C15.6665 51.1866 15.4665 51.2799 15.2265 51.2799C15.1198 51.2799 15.0131 51.2532 14.9198 51.2132C14.8265 51.1732 14.7331 51.0932 14.6398 50.9866V51.9999H14.1065V49.2132ZM12.1731 50.2266C12.1731 50.4266 12.2265 50.5732 12.3198 50.6799C12.4131 50.7866 12.5331 50.8399 12.6665 50.8399C12.7998 50.8399 12.9198 50.7866 13.0131 50.6799C13.1065 50.5732 13.1598 50.4132 13.1598 50.2132C13.1598 50.0132 13.1065 49.8666 13.0131 49.7599C12.9198 49.6532 12.7998 49.5999 12.6665 49.5999C12.5331 49.5999 12.4131 49.6532 12.3198 49.7599C12.2265 49.8666 12.1731 50.0266 12.1731 50.2266ZM11.6265 50.1999C11.6265 50.0266 11.6665 49.8532 11.7598 49.6799C11.8531 49.5199 11.9731 49.3866 12.1331 49.3066C12.2931 49.2132 12.4665 49.1732 12.6665 49.1732C12.9731 49.1732 13.2265 49.2666 13.4131 49.4666C13.6131 49.6666 13.7065 49.9199 13.7065 50.2132C13.7065 50.5199 13.6131 50.7732 13.4131 50.9732C13.2131 51.1732 12.9731 51.2799 12.6665 51.2799C12.4798 51.2799 12.3065 51.2399 12.1331 51.1599C11.9598 51.0799 11.8398 50.9599 11.7465 50.7866C11.6665 50.6266 11.6265 50.4266 11.6265 50.1999ZM9.38645 49.2132H11.1731V51.2266H10.6398V49.6399H9.91979V51.2266H9.38645V49.2132ZM7.54645 50.1866C7.54645 50.4132 7.58645 50.5866 7.67978 50.6932C7.77312 50.7999 7.87978 50.8532 8.01312 50.8532C8.13312 50.8532 8.23979 50.7999 8.31979 50.7066C8.39979 50.6132 8.43978 50.4399 8.43978 50.2132C8.43978 49.9999 8.39978 49.8399 8.30645 49.7466C8.22645 49.6399 8.11979 49.5999 7.98645 49.5999C7.85312 49.5999 7.74645 49.6532 7.66645 49.7466C7.58645 49.8399 7.54645 49.9999 7.54645 50.1866ZM7.01312 49.2132H7.50645V49.5066C7.57312 49.3999 7.65312 49.3199 7.77312 49.2532C7.87978 49.1866 7.99978 49.1599 8.14645 49.1599C8.38645 49.1599 8.57312 49.2532 8.74645 49.4399C8.90645 49.6266 8.98645 49.8799 8.98645 50.2132C8.98645 50.5466 8.90645 50.8132 8.74645 50.9999C8.58645 51.1866 8.38645 51.2799 8.14645 51.2799C8.03978 51.2799 7.93312 51.2532 7.83978 51.2132C7.74645 51.1732 7.65312 51.0932 7.55978 50.9866V51.9999H7.02645V49.2132H7.01312ZM5.07978 50.2266C5.07978 50.4266 5.13312 50.5732 5.22645 50.6799C5.31979 50.7866 5.43978 50.8399 5.57312 50.8399C5.70645 50.8399 5.82645 50.7866 5.91979 50.6799C6.01312 50.5732 6.06645 50.4132 6.06645 50.2132C6.06645 50.0132 6.01312 49.8666 5.91979 49.7599C5.82645 49.6532 5.70645 49.5999 5.57312 49.5999C5.43978 49.5999 5.31979 49.6532 5.22645 49.7599C5.13312 49.8666 5.07978 50.0266 5.07978 50.2266ZM4.53312 50.1999C4.53312 50.0266 4.57312 49.8532 4.66645 49.6799C4.75978 49.5199 4.87978 49.3866 5.03978 49.3066C5.19978 49.2132 5.37312 49.1732 5.57312 49.1732C5.87978 49.1732 6.13312 49.2666 6.31979 49.4666C6.51978 49.6666 6.61312 49.9199 6.61312 50.2132C6.61312 50.5199 6.51978 50.7732 6.31979 50.9732C6.11979 51.1732 5.87978 51.2799 5.57312 51.2799C5.38645 51.2799 5.21312 51.2399 5.03978 51.1599C4.86645 51.0799 4.74645 50.9599 4.65312 50.7866C4.57312 50.6266 4.53312 50.4266 4.53312 50.1999ZM2.29312 48.4532H2.85312V49.6399C2.97312 49.6266 3.06645 49.5999 3.10645 49.5466C3.14645 49.4932 3.21312 49.3466 3.30645 49.1199C3.42645 48.8132 3.54645 48.6266 3.65312 48.5599C3.77312 48.4799 3.95979 48.4532 4.21312 48.4532C4.22645 48.4532 4.25312 48.4532 4.29312 48.4532V48.8666H4.21312C4.09312 48.8666 4.01312 48.8799 3.95979 48.9066C3.90645 48.9332 3.86645 48.9732 3.82645 49.0399C3.79979 49.0932 3.74645 49.2132 3.67979 49.3999C3.63979 49.4932 3.61312 49.5732 3.57312 49.6399C3.53312 49.7066 3.46645 49.7599 3.35979 49.8266C3.47979 49.8666 3.58645 49.9332 3.66645 50.0399C3.74645 50.1466 3.83978 50.2932 3.93312 50.4932L4.30645 51.2532H3.65312L3.31978 50.5332C3.31978 50.5199 3.30645 50.5066 3.29312 50.4799C3.29312 50.4666 3.26645 50.4266 3.22645 50.3466C3.15979 50.2132 3.09312 50.1199 3.05312 50.0932C3.01312 50.0532 2.93312 50.0399 2.83978 50.0399V51.2532H2.27979V48.4532H2.29312Z" fill="black"/>
</g>
<defs>
<clipPath id="clip0_307_389">
<rect width="49.76" height="52" fill="white"/>
</clipPath>
</defs>
</svg>
