<svg width="50" height="52" viewBox="0 0 50 52" fill="none" xmlns="http://www.w3.org/2000/svg">
<g clip-path="url(#clip0_307_146)">
<path fill-rule="evenodd" clip-rule="evenodd" d="M0.240234 16.6133L4.64023 30.9467C24.7469 36.2533 34.6402 34.32 48.9336 24.7467C32.9736 31.7467 15.2002 27.0133 0.240234 16.6133Z" fill="#F7D161"/>
<path fill-rule="evenodd" clip-rule="evenodd" d="M24.5868 1.26667C31.4535 1.26667 37.0135 6.82667 37.0135 13.6933C37.0135 20.5467 31.4535 26.12 24.5868 26.12C17.7202 26.12 12.1602 20.56 12.1602 13.6933C12.1602 6.82667 17.7202 1.26667 24.5868 1.26667Z" fill="#BB4F3B"/>
<path fill-rule="evenodd" clip-rule="evenodd" d="M25.4268 4.89333L18.7201 5.6C14.7201 13.36 15.0801 17.2 19.0268 22.7867C16.4801 16.5733 19.1734 10.6267 25.4268 4.89333Z" fill="#F7D161"/>
<path d="M0.360352 38.8667H1.98702V40.8533L3.69369 38.8667H5.85368L3.93369 40.8533L5.93369 44.1333H3.93369L2.82702 41.9733L1.98702 42.8533V44.1333H0.360352V38.8667ZM6.45368 38.8667H8.58702L9.41369 42.0667L10.2404 38.8667H12.3737V44.12H11.0404V40.1067L10.0137 44.12H8.81369L7.78702 40.1067V44.12H6.45368V38.8667ZM13.4137 38.8667H17.4404V40H15.0404V40.92H17.0804V41.9867H15.0404V44.1333H13.4137V38.8667ZM17.9204 41.64H20.0404V42.7733H17.9204V41.64ZM26.267 45.2667H24.9604V44.12H21.6004V45.2667H20.2937V42.9067H20.8404C21.147 42.0533 21.2937 41.1067 21.2937 40.04V38.8667H25.6937V42.9067H26.267V45.2667ZM24.067 42.92V40.16H22.7604V40.2267C22.7604 40.96 22.6404 41.8533 22.387 42.92H24.067ZM26.8937 38.8667H31.2404V39.9867H28.5204V40.8267H31.0404V41.8933H28.5204V42.9333H31.3204V44.12H26.8937V38.8667ZM32.187 38.8667H34.3204L35.147 42.0667L35.9737 38.8667H38.107V44.12H36.7737V40.1067L35.747 44.12H34.547L33.5204 40.1067V44.12H32.187V38.8667ZM39.1337 38.8667H43.4804V39.9867H40.7604V40.8267H43.2937V41.8933H40.7604V42.9333H43.5604V44.12H39.1337V38.8667ZM43.947 38.8667H45.707L46.4404 41.0267L47.1604 38.8667H48.8137L47.0804 42.9333C46.9337 43.2667 46.8137 43.5067 46.707 43.6667C46.6004 43.8267 46.4404 43.96 46.2404 44.0667C46.0404 44.1733 45.747 44.2267 45.387 44.2267C45.2004 44.2267 44.867 44.2 44.4004 44.1467V43.0533C44.6804 43.08 44.8804 43.0933 45.0004 43.0933C45.3737 43.0933 45.6004 42.96 45.6804 42.68L43.947 38.8667Z" fill="black"/>
<path d="M44.1067 50.8V49.6533H43.4667C43.44 50.2133 43.36 50.5867 43.2 50.8H44.1067ZM44.4133 51.2267H42.8933V51.76H42.4667V50.8H42.68C42.7733 50.6933 42.84 50.5467 42.9067 50.32C42.96 50.1067 43 49.7333 43.0133 49.2133H44.64V50.8H44.8534V51.7733H44.4133V51.2267ZM40.3733 49.2133H40.9067V49.9467H41.6667V49.2133H42.2V51.2267H41.6667V50.3867H40.9067V51.2267H40.3733V49.2133ZM38.4534 50.2267C38.4534 50.4267 38.5067 50.5733 38.6 50.68C38.6934 50.7867 38.8133 50.84 38.9467 50.84C39.08 50.84 39.2 50.7867 39.2934 50.68C39.3867 50.5733 39.44 50.4133 39.44 50.2133C39.44 50.0133 39.3867 49.8667 39.2934 49.76C39.2 49.6533 39.08 49.6 38.9467 49.6C38.8133 49.6 38.6934 49.6533 38.6 49.76C38.4934 49.8667 38.4534 50.0267 38.4534 50.2267ZM37.9067 50.2C37.9067 50.0267 37.9467 49.8533 38.04 49.68C38.1334 49.52 38.2533 49.3867 38.4133 49.3067C38.5733 49.2133 38.7467 49.1733 38.9467 49.1733C39.2533 49.1733 39.5067 49.2667 39.6933 49.4667C39.8933 49.6667 39.9867 49.92 39.9867 50.2133C39.9867 50.52 39.8933 50.7733 39.6933 50.9733C39.4933 51.1733 39.2533 51.28 38.9467 51.28C38.76 51.28 38.5867 51.24 38.4133 51.16C38.24 51.08 38.12 50.96 38.0267 50.7867C37.9467 50.6267 37.9067 50.4267 37.9067 50.2ZM35.8133 50.44V49.2C35.5733 49.2 35.4 49.2533 35.3067 49.36C35.2 49.4667 35.1467 49.6267 35.1467 49.84C35.1467 50.24 35.3733 50.44 35.8133 50.44ZM36.36 50.44C36.5067 50.44 36.6267 50.4133 36.7334 50.36C36.84 50.3067 36.92 50.24 36.96 50.16C37 50.08 37.0267 49.96 37.0267 49.8C37.0267 49.4 36.8 49.2 36.36 49.2V50.44ZM36.36 50.9067V51.2267H35.8133V50.9067C35.3733 50.8933 35.0534 50.7867 34.8667 50.5733C34.68 50.3733 34.5867 50.12 34.5867 49.8133C34.5867 49.4933 34.68 49.24 34.8667 49.04C35.0534 48.84 35.3734 48.7467 35.8 48.72V48.44H36.3467V48.72C36.7867 48.7333 37.1067 48.84 37.28 49.04C37.4667 49.24 37.56 49.4933 37.56 49.8C37.56 50.1067 37.4667 50.36 37.28 50.56C37.12 50.7867 36.8134 50.8933 36.36 50.9067ZM32.5067 48.4H32.76C32.7467 48.5733 32.68 48.7067 32.5734 48.8C32.4667 48.8933 32.3333 48.9467 32.16 48.9467C31.9867 48.9467 31.8534 48.8933 31.7467 48.8C31.64 48.7067 31.5867 48.5733 31.56 48.4H31.8267C31.84 48.4933 31.8667 48.56 31.92 48.6C31.9734 48.64 32.0533 48.6667 32.16 48.6667C32.2667 48.6667 32.3467 48.64 32.4 48.6C32.4667 48.56 32.4934 48.4933 32.5067 48.4ZM31.2267 49.2133H31.7334V50.48L32.5467 49.2133H33.0667V51.2267H32.56V49.9333L31.7334 51.2267H31.2267V49.2133ZM30.1734 49.2133H30.7067V51.2267H30.1734V49.2133ZM28.4667 50.8933H28.96C29.0933 50.8933 29.1867 50.8667 29.24 50.8267C29.2934 50.7867 29.3333 50.72 29.3333 50.6267C29.3333 50.5333 29.2934 50.4667 29.2134 50.4267C29.1334 50.3867 29 50.3733 28.8134 50.3733H28.4667V50.8933ZM27.9333 49.2133H28.4667V50.0533H29C29.2134 50.0533 29.3734 50.0667 29.48 50.0933C29.5867 50.12 29.68 50.1867 29.76 50.2933C29.84 50.3867 29.88 50.5067 29.88 50.64C29.88 50.84 29.8134 50.9867 29.68 51.08C29.5467 51.1733 29.3467 51.2267 29.08 51.2267H27.9467V49.2133H27.9333ZM25.56 49.2133H26.0933V49.9467H26.8534V49.2133H27.3867V51.2267H26.8534V50.3867H26.0933V51.2267H25.56V49.2133ZM23.7334 50.8933H24.16C24.3067 50.8933 24.4267 50.88 24.4933 50.84C24.56 50.8 24.6 50.7333 24.6 50.64C24.6 50.5467 24.56 50.48 24.48 50.44C24.4 50.4 24.24 50.3867 24.0134 50.3867H23.7467V50.8933H23.7334ZM23.7334 50.0533H24.08C24.24 50.0533 24.36 50.0267 24.44 49.9867C24.52 49.9467 24.5467 49.88 24.5467 49.7867C24.5467 49.7067 24.5067 49.64 24.44 49.6C24.3734 49.56 24.2534 49.5467 24.0667 49.5467H23.72V50.0533H23.7334ZM23.2 49.2133H24.3734C24.6133 49.2133 24.7867 49.2533 24.9067 49.3467C25.0267 49.44 25.08 49.56 25.08 49.7467C25.08 49.8533 25.0534 49.96 24.9867 50.04C24.92 50.12 24.84 50.1733 24.7467 50.2133C24.88 50.2533 24.9867 50.3067 25.0534 50.4C25.12 50.4933 25.16 50.6 25.16 50.7067C25.16 50.8667 25.1067 50.9867 24.9867 51.0933C24.8667 51.1867 24.7067 51.24 24.48 51.24H23.2134V49.2133H23.2ZM20.7867 49.2133H21.2934V50.48L22.1067 49.2133H22.6267V51.2267H22.12V49.9333L21.2934 51.2267H20.7867V49.2133ZM18.6667 49.2133H20.4934V49.64H19.84V51.2267H19.3067V49.64H18.6667V49.2133ZM17.8534 50.2667C17.7867 50.2933 17.68 50.32 17.5334 50.3467C17.3867 50.3733 17.2934 50.4133 17.24 50.44C17.1734 50.4933 17.1334 50.5467 17.1334 50.6267C17.1334 50.7067 17.16 50.76 17.2134 50.8267C17.2667 50.88 17.3334 50.9067 17.4267 50.9067C17.52 50.9067 17.6134 50.88 17.7067 50.8133C17.7734 50.76 17.8134 50.7067 17.84 50.64C17.8534 50.6 17.8667 50.5067 17.8667 50.3867V50.2667H17.8534ZM17.1334 49.8267L16.6534 49.7333C16.7067 49.5333 16.8 49.4 16.9334 49.3067C17.0667 49.2133 17.2667 49.16 17.52 49.16C17.76 49.16 17.9334 49.1867 18.0534 49.24C18.1734 49.2933 18.2534 49.3733 18.2934 49.4533C18.3467 49.5467 18.36 49.6933 18.36 49.9333V50.56C18.36 50.7333 18.3734 50.8667 18.3867 50.9467C18.4 51.0267 18.44 51.12 18.48 51.2133H17.9467C17.9334 51.1733 17.92 51.12 17.8934 51.0533C17.88 51.0267 17.88 51 17.88 50.9867C17.7867 51.08 17.6934 51.1467 17.5867 51.1867C17.48 51.2267 17.3734 51.2533 17.2534 51.2533C17.04 51.2533 16.88 51.2 16.76 51.08C16.64 50.9733 16.5867 50.8267 16.5867 50.6533C16.5867 50.5333 16.6134 50.44 16.6667 50.3467C16.72 50.2533 16.8 50.1867 16.8934 50.1467C16.9867 50.0933 17.1334 50.0533 17.32 50.0267C17.5734 49.9867 17.7467 49.9333 17.84 49.8933V49.8667C17.84 49.76 17.8134 49.6933 17.76 49.6533C17.7067 49.6133 17.6134 49.5867 17.48 49.5867C17.3867 49.5867 17.3067 49.6 17.2534 49.64C17.2134 49.6667 17.1734 49.7333 17.1334 49.8267ZM14.88 50.1867C14.88 50.4133 14.92 50.5867 15.0134 50.6933C15.1067 50.8 15.2134 50.8533 15.3467 50.8533C15.4667 50.8533 15.5734 50.8 15.6534 50.7067C15.7334 50.6133 15.7734 50.44 15.7734 50.2133C15.7734 50 15.7334 49.84 15.64 49.7467C15.56 49.64 15.4534 49.6 15.32 49.6C15.1867 49.6 15.08 49.6533 15 49.7467C14.92 49.84 14.88 50 14.88 50.1867ZM14.3467 49.2133H14.84V49.5067C14.9067 49.4 14.9867 49.32 15.1067 49.2533C15.2134 49.1867 15.3334 49.16 15.4667 49.16C15.7067 49.16 15.8934 49.2533 16.0667 49.44C16.2267 49.6267 16.3067 49.88 16.3067 50.2133C16.3067 50.5467 16.2267 50.8133 16.0667 51C15.9067 51.1867 15.7067 51.28 15.4667 51.28C15.36 51.28 15.2534 51.2533 15.16 51.2133C15.0667 51.1733 14.9734 51.0933 14.88 50.9867V52H14.3467V49.2133ZM12.4134 50.2267C12.4134 50.4267 12.4667 50.5733 12.56 50.68C12.6534 50.7867 12.7734 50.84 12.9067 50.84C13.04 50.84 13.16 50.7867 13.2534 50.68C13.3467 50.5733 13.4 50.4133 13.4 50.2133C13.4 50.0133 13.3467 49.8667 13.2534 49.76C13.16 49.6533 13.04 49.6 12.9067 49.6C12.7734 49.6 12.6534 49.6533 12.56 49.76C12.4667 49.8667 12.4134 50.0267 12.4134 50.2267ZM11.8667 50.2C11.8667 50.0267 11.9067 49.8533 12 49.68C12.0934 49.52 12.2134 49.3867 12.3734 49.3067C12.5334 49.2133 12.7067 49.1733 12.9067 49.1733C13.2134 49.1733 13.4667 49.2667 13.6534 49.4667C13.8534 49.6667 13.9467 49.92 13.9467 50.2133C13.9467 50.52 13.8534 50.7733 13.6534 50.9733C13.4534 51.1733 13.2134 51.28 12.9067 51.28C12.72 51.28 12.5467 51.24 12.3734 51.16C12.2 51.08 12.08 50.96 11.9867 50.7867C11.9067 50.6267 11.8667 50.4267 11.8667 50.2ZM9.62669 49.2133H11.4134V51.2267H10.88V49.64H10.16V51.2267H9.62669V49.2133ZM7.78669 50.1867C7.78669 50.4133 7.82669 50.5867 7.92002 50.6933C8.01335 50.8 8.12002 50.8533 8.25335 50.8533C8.37335 50.8533 8.48002 50.8 8.56002 50.7067C8.64002 50.6133 8.68002 50.44 8.68002 50.2133C8.68002 50 8.64002 49.84 8.54669 49.7467C8.46669 49.64 8.36002 49.6 8.22669 49.6C8.09335 49.6 7.98669 49.6533 7.90669 49.7467C7.82669 49.84 7.78669 50 7.78669 50.1867ZM7.25335 49.2133H7.74669V49.5067C7.81335 49.4 7.89335 49.32 8.01335 49.2533C8.12002 49.1867 8.24002 49.16 8.38669 49.16C8.62669 49.16 8.81335 49.2533 8.98669 49.44C9.14669 49.6267 9.22669 49.88 9.22669 50.2133C9.22669 50.5467 9.14669 50.8133 8.98669 51C8.82669 51.1867 8.62669 51.28 8.38669 51.28C8.28002 51.28 8.17335 51.2533 8.08002 51.2133C7.98669 51.1733 7.89335 51.0933 7.80002 50.9867V52H7.26669V49.2133H7.25335ZM5.32002 50.2267C5.32002 50.4267 5.37335 50.5733 5.46669 50.68C5.56002 50.7867 5.68002 50.84 5.81335 50.84C5.94669 50.84 6.06669 50.7867 6.16002 50.68C6.25335 50.5733 6.30669 50.4133 6.30669 50.2133C6.30669 50.0133 6.25335 49.8667 6.16002 49.76C6.06669 49.6533 5.94669 49.6 5.81335 49.6C5.68002 49.6 5.56002 49.6533 5.46669 49.76C5.37335 49.8667 5.32002 50.0267 5.32002 50.2267ZM4.77335 50.2C4.77335 50.0267 4.81335 49.8533 4.90669 49.68C5.00002 49.52 5.12002 49.3867 5.28002 49.3067C5.44002 49.2133 5.61335 49.1733 5.81335 49.1733C6.12002 49.1733 6.37335 49.2667 6.56002 49.4667C6.76002 49.6667 6.85335 49.92 6.85335 50.2133C6.85335 50.52 6.76002 50.7733 6.56002 50.9733C6.36002 51.1733 6.12002 51.28 5.81335 51.28C5.62669 51.28 5.45335 51.24 5.28002 51.16C5.10669 51.08 4.98669 50.96 4.89335 50.7867C4.81335 50.6267 4.77335 50.4267 4.77335 50.2ZM2.53335 48.4533H3.09335V49.64C3.21335 49.6267 3.30669 49.6 3.34669 49.5467C3.38669 49.4933 3.45335 49.3467 3.54669 49.12C3.66669 48.8133 3.78669 48.6267 3.89335 48.56C4.01335 48.48 4.20002 48.4533 4.45335 48.4533C4.46669 48.4533 4.49335 48.4533 4.53335 48.4533V48.8667H4.45335C4.33335 48.8667 4.25335 48.88 4.20002 48.9067C4.14669 48.9333 4.10669 48.9733 4.06669 49.04C4.04002 49.0933 3.98669 49.2133 3.92002 49.4C3.88002 49.4933 3.85335 49.5733 3.81335 49.64C3.77335 49.7067 3.70669 49.76 3.60002 49.8267C3.72002 49.8667 3.82669 49.9333 3.90669 50.04C3.98669 50.1467 4.08002 50.2933 4.17335 50.4933L4.54669 51.2533H3.89335L3.56002 50.5333C3.56002 50.52 3.54669 50.5067 3.53335 50.48C3.53335 50.4667 3.50669 50.4267 3.46669 50.3467C3.40002 50.2133 3.33335 50.12 3.29335 50.0933C3.25335 50.0533 3.17335 50.04 3.08002 50.04V51.2533H2.52002V48.4533H2.53335Z" fill="black"/>
</g>
<defs>
<clipPath id="clip0_307_146">
<rect width="49.76" height="52" fill="white" transform="translate(0.240234)"/>
</clipPath>
</defs>
</svg>
