<svg width="105" height="64" viewBox="0 0 105 64" fill="none" xmlns="http://www.w3.org/2000/svg">
<g clip-path="url(#clip0_307_243)">
<path fill-rule="evenodd" clip-rule="evenodd" d="M40.465 50.645C46.999 41.4732 45.8486 34.4996 42.0024 25.8358C46.383 23.9246 44.5349 18.0935 44.3559 7.80549C44.3191 5.74157 44.1716 6.27861 43.1792 7.20527C42.4157 7.91869 41.7655 8.78744 41.4127 10.0221C41.1179 11.0567 41.8418 13.9736 42.2788 14.8897C39.5357 14.2526 35.808 12.8547 34.9761 18.1725C34.9761 18.8912 35.3184 19.9732 35.6027 20.4733C37.2217 23.3376 40.3571 21.9397 40.8178 21.8317C40.1833 20.863 38.7354 20.3707 39.7226 18.9122C40.7993 17.3195 44.7561 19.5809 41.131 22.4925C40.207 23.2349 39.612 23.6824 38.6327 24.3458C39.0224 26.186 40.3834 28.0288 40.8046 29.8294C40.0412 29.2266 39.6384 28.5026 38.9197 27.7366C37.6745 26.4045 29.2582 18.6779 19.0781 16.8483C10.3749 15.2898 3.60398 8.41361 3.24859 8.32411C3.23806 10.7961 4.75178 15.0687 5.91537 16.9641C6.5814 18.0488 7.25534 19.5414 7.91611 20.4339C9.86946 23.0611 14.0315 26.1333 17.1037 27.6655C19.3414 28.7817 22.8006 30.2164 25.4989 30.2138C24.5486 31.6406 23.8615 31.717 22.9269 33.4834C18.3252 42.155 28.8923 50.4844 36.0555 45.5168C38.0246 44.1505 38.996 41.4943 38.996 40.4307C38.996 38.4589 37.9062 37.2243 37.5455 35.6816L36.8953 36.5082C36.8505 36.5714 36.7952 36.6662 36.7531 36.732C36.5293 37.0821 36.3003 37.5191 36.0713 37.8693C33.5651 41.6812 29.8716 39.125 29.8716 37.1453C29.8716 33.0754 35.708 30.8509 39.3488 34.2363C39.949 34.7944 40.8862 36.4029 41.1784 37.1453C44.0242 44.3796 37.0295 47.9519 35.7106 49.9158C36.7873 52.0666 38.6169 54.4754 40.0122 56.5577L43.9637 62.4573C44.2796 62.8653 44.2427 62.8127 44.3427 62.9127C44.3427 60.2091 44.9166 57.6134 43.4424 55.4705C42.1498 53.5961 41.3179 51.8797 40.4676 50.6424" fill="#624A9D"/>
<path d="M49.4209 21.6107H54.1516V24.9883L58.4769 21.6107H63.7209L59.1403 25.1857L64.5844 31.2301H58.906L55.8075 27.7893L54.1516 29.0872V31.2353H49.4209V21.6134V21.6107ZM74.1537 26.2914L69.4704 21.6055H65.4189V31.2275H70.0391V27.118L74.1564 31.2222L78.2737 27.118V31.2275H82.8938V21.6055H78.8423L74.159 26.2914H74.1537ZM84.5865 21.6055H98.8918V23.6641H89.3304V25.3016H97.1886V27.3629H89.3304V31.2275H84.5892V21.6055H84.5865Z" fill="#533D8D"/>
<mask id="mask0_307_243" style="mask-type:luminance" maskUnits="userSpaceOnUse" x="49" y="36" width="56" height="22">
<path d="M101.746 54.9653V57.9243H98.9945V54.9284L95.9171 49.766H98.8181L100.485 52.5855L102.161 49.766H104.818L101.74 54.9627L101.746 54.9653ZM93.0634 57.9243L93.0397 54.2071L91.268 57.1898H90.057L88.2853 54.3335V57.9216H85.7791V49.7634H88.0405L90.6967 54.1097L93.2845 49.7634H95.5459L95.5696 57.9216H93.0634V57.9243ZM82.3542 54.9653V57.9243H79.6031V54.9284L76.5257 49.766H79.4268L81.0932 52.5855L82.7701 49.766H85.4263L82.3489 54.9627L82.3542 54.9653ZM76.1782 49.7686V57.9269H73.9168L70.8183 54.2203V57.9269H68.1384V49.7686H70.3997L73.4983 53.4753V49.7686H76.1782ZM63.5472 54.523L62.7548 52.4723L61.9624 54.523H63.5472ZM64.3054 56.5053H61.2069L60.6593 57.9269H57.8635L61.4306 49.7686H64.1343L67.7014 57.9269H64.8582L64.3106 56.5053H64.3054ZM82.7411 39.5543C82.7411 39.2516 82.649 39.0173 82.4621 38.8488C82.2752 38.6829 81.9961 38.5987 81.6223 38.5987H80.6193V40.5099H81.6223C81.9961 40.5099 82.2752 40.4257 82.4621 40.2598C82.649 40.094 82.7411 39.8571 82.7411 39.5543ZM81.367 42.5844H80.6219V44.6351H77.8709V36.4769H81.7987C82.5516 36.4769 83.2097 36.6006 83.7678 36.8507C84.3259 37.0981 84.7577 37.4562 85.0604 37.9221C85.3632 38.3881 85.5159 38.933 85.5159 39.5543C85.5159 40.1361 85.3842 40.6468 85.1183 41.0812C84.8551 41.5156 84.4734 41.8631 83.9758 42.1184L85.6896 44.6351H82.7517L81.3643 42.5844H81.367ZM76.81 42.5607V44.6351H70.0285V36.4769H76.66V38.5513H72.7322V39.5069H76.1808V41.4892H72.7322V42.5607H76.81ZM64.4344 41.9315L63.8157 42.6186V44.6351H61.1121V36.4769H63.8157V39.4359L66.4957 36.4769H69.4915L66.2298 40.065L69.6547 44.6325H66.4746L64.4344 41.9289V41.9315ZM56.4972 44.8221C55.8207 44.8221 55.1625 44.7457 54.5228 44.5957C53.8831 44.443 53.3566 44.2403 52.9433 43.9849L53.8278 41.9815C54.2174 42.2079 54.6518 42.3869 55.1336 42.5238C55.6153 42.6607 56.0786 42.7265 56.5209 42.7265C56.9026 42.7265 57.1738 42.6897 57.337 42.616C57.5002 42.5423 57.5818 42.4317 57.5818 42.2843C57.5818 42.1132 57.4739 41.9842 57.2607 41.8999C57.0474 41.8157 56.6947 41.7209 56.205 41.6209C55.5758 41.4892 55.052 41.3471 54.6307 41.1944C54.2122 41.0417 53.8462 40.7942 53.5356 40.4494C53.225 40.1045 53.0696 39.6359 53.0696 39.0462C53.0696 38.5329 53.2144 38.0669 53.5014 37.6483C53.7883 37.2298 54.2174 36.8981 54.7887 36.6585C55.36 36.4189 56.0523 36.2979 56.8684 36.2979C57.4265 36.2979 57.9767 36.3584 58.5164 36.4795C59.0561 36.6006 59.5326 36.777 59.9432 37.0086L59.1166 39.0015C58.3163 38.5987 57.5581 38.396 56.8447 38.396C56.1313 38.396 55.7838 38.5671 55.7838 38.9093C55.7838 39.0726 55.8891 39.1937 56.0997 39.2753C56.3103 39.3569 56.6552 39.4438 57.1369 39.5385C57.7582 39.6544 58.2821 39.7886 58.7112 39.9413C59.1377 40.094 59.5089 40.3388 59.8248 40.6811C60.1407 41.0233 60.296 41.4892 60.296 42.0789C60.296 42.5923 60.1512 43.0556 59.8643 43.4716C59.5773 43.8875 59.1482 44.2166 58.5769 44.4614C58.0057 44.7062 57.3133 44.8273 56.4972 44.8273V44.8221ZM49.3762 36.4795H52.1272V44.6378H49.3762V36.4795ZM57.416 49.7713V57.9295H54.665V54.9232H52.1246V57.9295H49.3735V49.7713H52.1246V52.6618H54.665V49.7713H57.416Z" fill="white"/>
</mask>
<g mask="url(#mask0_307_243)">
<path d="M104.823 36.29H49.3762V57.9244H104.823V36.29Z" fill="url(#paint0_linear_307_243)"/>
</g>
<path fill-rule="evenodd" clip-rule="evenodd" d="M36.0239 33.9624C37.0585 35.463 38.0615 37.6717 39.899 40.0173V29.0632C39.8121 28.9816 39.7305 28.9132 39.6594 28.8579L36.0212 33.9624H36.0239Z" fill="#FDFDFD"/>
<path fill-rule="evenodd" clip-rule="evenodd" d="M37.5613 9.15066C38.1799 10.5406 39.3435 12.5203 39.6752 13.8787L39.9016 13.4417V6.77346C39.8226 6.71555 39.7463 6.66026 39.6673 6.60498C38.946 7.70276 38.2142 8.03446 37.5613 9.15066Z" fill="#FDFDFD"/>
<mask id="mask1_307_243" style="mask-type:luminance" maskUnits="userSpaceOnUse" x="3" y="6" width="43" height="57">
<path d="M40.4018 50.687C46.9358 41.5152 45.7853 34.5416 41.9392 25.8778C46.3197 23.9666 44.4717 18.1355 44.2927 7.84749C44.2558 5.78356 44.1084 6.3206 43.1159 7.24726C42.3525 7.96069 41.7022 8.82943 41.3495 10.0641C41.0546 11.0987 41.7786 14.0156 42.2156 14.9317C39.4725 14.2946 35.7448 12.8967 34.9129 18.2145C34.9129 18.9332 35.2551 20.0151 35.5394 20.5153C37.1585 23.3796 40.2938 21.9817 40.7545 21.8737C40.1201 20.9049 38.6722 20.4127 39.6594 18.9542C40.7361 17.3615 44.6928 19.6229 41.0678 22.5345C40.1438 23.2769 39.5488 23.7244 38.5695 24.3878C38.9591 26.228 40.3202 28.0708 40.7414 29.8714C39.9779 29.2686 39.5751 28.5446 38.8565 27.7785C37.6113 26.4465 29.195 18.7199 19.0149 16.8903C10.309 15.3318 3.53812 8.45561 3.18536 8.3661C3.17483 10.8381 4.68855 15.1107 5.85213 17.0061C6.51817 18.0907 7.1921 19.5834 7.85287 20.4758C9.80623 23.1031 13.9683 26.1727 17.0405 27.7075C19.2782 28.8237 22.7373 30.2584 25.4357 30.2558C24.4853 31.6826 23.7982 31.759 22.8637 33.5254C18.262 42.197 28.8291 50.5264 35.9922 45.5588C37.9614 44.1925 38.9328 41.5363 38.9328 40.4727C38.9328 38.5009 37.8429 37.2663 37.4823 35.7236C37.2664 36 37.0505 36.2764 36.832 36.5502C36.7873 36.6134 36.732 36.7082 36.6899 36.774C36.4661 37.1241 36.2371 37.5611 36.008 37.9112C33.5018 41.7232 29.8084 39.167 29.8084 37.1873C29.8084 33.1174 35.6447 30.8929 39.2856 34.2783C39.8858 34.8364 40.823 36.4449 41.1152 37.1873C43.961 44.4215 36.9663 47.9939 35.6474 49.9578C36.7241 52.1086 38.5537 54.5174 39.949 56.5997C41.2652 58.5663 42.5815 60.5328 43.9004 62.4993C44.2163 62.9073 44.1795 62.8547 44.2795 62.9547C44.2795 60.2511 44.8534 57.6554 43.3792 55.5125C42.0866 53.6381 41.2547 51.9217 40.4044 50.6844" fill="white"/>
</mask>
<g mask="url(#mask1_307_243)">
<path d="M46.9357 5.78369H3.1748V62.9548H46.9357V5.78369Z" fill="url(#paint1_linear_307_243)"/>
</g>
<mask id="mask2_307_243" style="mask-type:luminance" maskUnits="userSpaceOnUse" x="3" y="6" width="42" height="57">
<path d="M40.3361 50.7295C46.8701 41.5577 45.7197 34.5841 41.8735 25.9203C46.2541 24.0091 44.406 18.178 44.227 7.88997C44.1901 5.82604 44.0427 6.36309 43.0503 7.28974C42.2868 8.00317 41.6366 8.87191 41.2838 10.1066C40.989 11.1412 41.7129 14.058 42.1499 14.9742C39.4068 14.3371 35.6791 12.9392 34.8472 18.257C34.8472 18.9756 35.1894 20.0576 35.4738 20.5578C37.0928 23.422 40.2282 22.0241 40.6889 21.9162C40.0544 20.9474 38.6065 20.4551 39.5937 18.9967C40.6704 17.404 44.6272 19.6654 41.0021 22.577C40.0781 23.3194 39.4831 23.7669 38.5038 24.4303C38.8934 26.2705 40.2545 28.1132 40.6757 29.9139C39.9122 29.3111 39.5095 28.5871 38.7908 27.821C37.5456 26.489 29.1293 18.7624 18.9492 16.9328C10.246 15.3743 3.47508 8.49809 3.11968 8.40858C3.10915 10.8805 4.62287 15.1532 5.78646 17.0486C6.4525 18.1332 7.12643 19.6259 7.7872 20.5183C9.74055 23.1456 13.9026 26.2178 16.9748 27.7499C19.2125 28.8661 22.6717 30.3009 25.37 30.2983C24.4197 31.7251 23.7326 31.8014 22.798 33.5679C18.1963 42.2395 28.7634 50.5689 35.9266 45.6013C37.8957 44.235 38.8671 41.5788 38.8671 40.5152C38.8671 38.5434 37.7772 37.3087 37.4166 35.7661C37.2007 36.0425 36.9848 36.3189 36.7663 36.5927C36.7216 36.6559 36.6663 36.7506 36.6242 36.8165C36.4004 37.1666 36.1714 37.6036 35.9424 37.9537C33.4362 41.7657 29.7427 39.2094 29.7427 37.2298C29.7427 33.1598 35.5791 30.9353 39.2199 34.3208C39.8201 34.8789 40.7573 36.4874 41.0495 37.2298C43.8953 44.464 36.9006 48.0364 35.5817 50.0003C36.6584 52.1511 38.488 54.5599 39.8833 56.6422C41.1996 58.6087 42.5158 60.5753 43.8348 62.5418C44.1507 62.9498 44.1138 62.8972 44.2138 62.9972C44.2138 60.2936 44.7877 57.6979 43.3135 55.555C42.0209 53.6806 41.189 51.9642 40.3387 50.7269" fill="white"/>
</mask>
<g mask="url(#mask2_307_243)">
<path d="M46.8727 5.82617H3.11182V62.9973H46.8727V5.82617Z" fill="url(#paint2_linear_307_243)"/>
</g>
<mask id="mask3_307_243" style="mask-type:luminance" maskUnits="userSpaceOnUse" x="3" y="6" width="42" height="58">
<path d="M40.2729 50.7715C46.8069 41.5997 45.6564 34.626 41.8103 25.9623C46.1908 24.0511 44.3428 18.22 44.1638 7.93196C44.1269 5.86804 43.9795 6.40508 42.987 7.33174C42.2236 8.04516 41.5733 8.9139 41.2206 10.1486C40.9257 11.1832 41.6497 14.1 42.0867 15.0162C39.3436 14.3791 35.6159 12.9812 34.784 18.299C34.784 19.0176 35.1262 20.0996 35.4105 20.5998C37.0295 23.464 40.1649 22.0661 40.6256 21.9582C39.9912 20.9894 38.5433 20.4971 39.5305 19.0387C40.6072 17.446 44.5639 19.7074 40.9389 22.619C40.0149 23.3614 39.4199 23.8089 38.4406 24.4723C38.8302 26.3124 40.1912 28.1552 40.6125 29.9559C39.849 29.353 39.4462 28.6291 38.7276 27.863C37.4824 26.5309 29.0661 18.8044 18.886 16.9748C10.1801 15.4163 3.40921 8.54008 3.05645 8.45057C3.04592 10.9225 4.55964 15.1952 5.72323 17.0906C6.38926 18.1752 7.0632 19.6679 7.72397 20.5603C9.67732 23.1876 13.8394 26.2572 16.9116 27.7919C19.1493 28.9081 22.6084 30.3429 25.3068 30.3403C24.3564 31.7671 23.6693 31.8434 22.7348 33.6099C18.1331 42.2815 28.7002 50.6109 35.8633 45.6433C37.8325 44.277 38.8039 41.6207 38.8039 40.5572C38.8039 38.5854 37.714 37.3507 37.3534 35.8081C37.1375 36.0845 36.9216 36.3609 36.7031 36.6347C36.6584 36.6979 36.6031 36.7926 36.561 36.8585C36.3372 37.2086 36.1082 37.6456 35.8791 37.9957C33.3729 41.8077 29.6795 39.2514 29.6795 37.2718C29.6795 33.2018 35.5158 30.9773 39.1567 34.3628C39.7569 34.9209 40.6941 36.5294 40.9863 37.2718C43.8321 44.506 36.8374 48.0784 35.5185 50.0423C36.5952 52.1931 38.4248 54.6019 39.8201 56.6842C41.1363 58.6507 42.4526 60.6172 43.7715 62.5838C44.0848 62.9918 44.0506 62.9392 44.1506 63.0392C44.1506 60.3356 44.7245 57.7399 43.2503 55.597C41.9577 53.7226 41.1258 52.0062 40.2755 50.7689" fill="white"/>
</mask>
<g mask="url(#mask3_307_243)">
<path d="M46.8068 5.86816H3.0459V63.0393H46.8068V5.86816Z" fill="url(#paint3_linear_307_243)"/>
</g>
<mask id="mask4_307_243" style="mask-type:luminance" maskUnits="userSpaceOnUse" x="2" y="6" width="43" height="58">
<path d="M40.2069 50.8135C46.7409 41.6417 45.5905 34.668 41.7444 26.0043C46.1249 24.0931 44.2769 18.262 44.0979 7.97395C44.061 5.91003 43.9136 6.44707 42.9211 7.37373C42.1577 8.08715 41.5074 8.95589 41.1547 10.1906C40.8598 11.2252 41.5838 14.142 42.0208 15.0582C39.2776 14.4211 35.55 13.0232 34.7181 18.3409C34.7181 19.0596 35.0603 20.1416 35.3446 20.6418C36.9636 23.506 40.099 22.1081 40.5597 22.0002C39.9253 21.0314 38.4774 20.5391 39.4646 19.0807C40.5413 17.488 44.498 19.7494 40.873 22.661C39.9489 23.4033 39.354 23.8509 38.3747 24.5143C38.7643 26.3544 40.1253 28.1972 40.5465 29.9979C39.7831 29.395 39.3803 28.6711 38.6616 27.905C37.4164 26.5729 29.0002 18.8464 18.8201 17.0168C10.1169 15.4557 3.34593 8.57944 2.99053 8.49256C2.98 10.9645 4.49372 15.2372 5.65731 17.1326C6.32335 18.2172 6.99728 19.7099 7.65805 20.6023C9.6114 23.2296 13.7735 26.3018 16.8457 27.8339C19.0833 28.9501 22.5425 30.3849 25.2409 30.3822C24.2905 31.8091 23.6034 31.8854 22.6689 33.6519C18.0672 42.3235 28.6342 50.6529 35.7974 45.6853C37.7666 44.319 38.738 41.6627 38.738 40.5992C38.738 38.6274 37.6481 37.3927 37.2874 35.8501C37.0716 36.1265 36.8557 36.4029 36.6372 36.6767C36.5924 36.7399 36.5372 36.8346 36.495 36.9004C36.2713 37.2506 36.0422 37.6876 35.8132 38.0377C33.307 41.8496 29.6135 39.2934 29.6135 37.3138C29.6135 33.2438 35.4499 31.0193 39.0907 34.4048C39.691 34.9629 40.6282 36.5714 40.9204 37.3138C43.7662 44.548 36.7715 48.1204 35.4525 50.0843C36.5293 52.2351 38.3589 54.6439 39.7541 56.7262C41.0704 58.6927 42.3867 60.6592 43.7056 62.6258C44.0215 63.0338 43.9847 62.9811 44.0847 63.0812C44.0847 60.3776 44.6586 57.7819 43.1844 55.639C41.8918 53.7646 41.0599 52.0482 40.2096 50.8109" fill="white"/>
</mask>
<g mask="url(#mask4_307_243)">
<path d="M46.7436 5.91016H2.98267V63.0813H46.7436V5.91016Z" fill="url(#paint4_linear_307_243)"/>
</g>
<mask id="mask5_307_243" style="mask-type:luminance" maskUnits="userSpaceOnUse" x="2" y="6" width="43" height="58">
<path d="M40.1437 50.8555C46.6777 41.6837 45.5273 34.71 41.6811 26.0463C46.0617 24.1351 44.2136 18.304 44.0346 8.01594C43.9978 5.95202 43.8503 6.48906 42.8579 7.41572C42.0944 8.12914 41.4442 8.99788 41.0914 10.2326C40.7966 11.2671 41.5205 14.184 41.9575 15.1001C39.2144 14.4631 35.4867 13.0652 34.6548 18.3829C34.6548 19.1016 34.9971 20.1836 35.2814 20.6838C36.9004 23.548 40.0358 22.1501 40.4965 22.0422C39.862 21.0734 38.4141 20.5811 39.4013 19.1227C40.478 17.53 44.4348 19.7914 40.8097 22.703C39.8857 23.4453 39.2908 23.8929 38.3114 24.5563C38.7011 26.3964 40.0621 28.2392 40.4833 30.0399C39.7199 29.437 39.3171 28.7131 38.5984 27.947C37.3532 26.6149 28.9369 18.8884 18.7568 17.0588C10.051 15.4977 3.28006 8.62143 2.9273 8.53192C2.91677 11.0039 4.43049 15.2765 5.59408 17.172C6.26011 18.2566 6.93405 19.7492 7.59482 20.6417C9.54817 23.269 13.7102 26.3385 16.7824 27.8733C19.0201 28.9895 22.4793 30.4242 25.1776 30.4216C24.2273 31.8484 23.5402 31.9248 22.6056 33.6912C18.0039 42.3629 28.571 50.6923 35.7342 45.7246C37.7033 44.3583 38.6747 41.7021 38.6747 40.6385C38.6747 38.6668 37.5849 37.4321 37.2242 35.8894C37.0083 36.1658 36.7925 36.4423 36.574 36.716C36.5292 36.7792 36.4739 36.874 36.4318 36.9398C36.208 37.2899 35.979 37.7269 35.75 38.0771C33.2438 41.889 29.5503 39.3328 29.5503 37.3531C29.5503 33.2832 35.3867 31.0587 39.0275 34.4441C39.6277 35.0022 40.5649 36.6107 40.8571 37.3531C43.7029 44.5874 36.7082 48.1597 35.3893 50.1236C36.466 52.2744 38.2957 54.6832 39.6909 56.7656C41.0072 58.7321 42.3235 60.6986 43.6424 62.6651C43.9556 63.0732 43.9214 63.0205 44.0215 63.1205C44.0215 60.4169 44.5954 57.8212 43.1211 55.6783C41.8285 53.8039 40.9967 52.0875 40.1463 50.8502" fill="white"/>
</mask>
<g mask="url(#mask5_307_243)">
<path d="M46.6777 5.94922H2.91675V63.1204H46.6777V5.94922Z" fill="url(#paint5_linear_307_243)"/>
</g>
<mask id="mask6_307_243" style="mask-type:luminance" maskUnits="userSpaceOnUse" x="2" y="6" width="43" height="58">
<path d="M40.078 50.895C46.612 41.7232 45.4616 34.7496 41.6154 26.0858C45.996 24.1746 44.148 18.3435 43.9689 8.05549C43.9321 5.99157 43.7847 6.52861 42.7922 7.45527C42.0288 8.16869 41.3785 9.03744 41.0257 10.2721C40.7309 11.3067 41.4549 14.2236 41.8919 15.1397C39.1487 14.5026 35.421 13.1047 34.5892 18.4225C34.5892 19.1412 34.9314 20.2232 35.2157 20.7233C36.8347 23.5876 39.9701 22.1897 40.4308 22.0817C39.7963 21.113 38.3484 20.6207 39.3357 19.1622C40.4124 17.5695 44.3691 19.8309 40.7441 22.7425C39.82 23.4849 39.2251 23.9324 38.2458 24.5958C38.6354 26.436 39.9964 28.2788 40.4176 30.0794C39.6542 29.4766 39.2514 28.7526 38.5327 27.9866C37.2875 26.6545 28.8713 18.9279 18.6912 17.0983C9.98795 15.5398 3.21702 8.66361 2.86163 8.57411C2.8511 11.0461 4.36481 15.3187 5.5284 17.2141C6.19444 18.2988 6.86837 19.7914 7.52914 20.6839C9.4825 23.3111 13.6446 26.3833 16.7168 27.9155C18.9544 29.0317 22.4136 30.4664 25.112 30.4638C24.1616 31.8906 23.4745 31.967 22.54 33.7334C17.9383 42.405 28.5053 50.7344 35.6685 45.7668C37.6377 44.4005 38.6091 41.7443 38.6091 40.6807C38.6091 38.7089 37.5192 37.4743 37.1585 35.9316C36.9427 36.208 36.7268 36.4844 36.5083 36.7582C36.4635 36.8214 36.4083 36.9162 36.3661 36.982C36.1424 37.3321 35.9133 37.7691 35.6843 38.1193C33.1781 41.9312 29.4846 39.375 29.4846 37.3953C29.4846 33.3254 35.321 31.1009 38.9618 34.4863C39.562 35.0444 40.4992 36.6529 40.7915 37.3953C43.6372 44.6296 36.6426 48.2019 35.3236 50.1658C36.4004 52.3166 38.23 54.7254 39.6252 56.8077C40.9415 58.7743 42.2578 60.7408 43.5767 62.7073C43.8926 63.1153 43.8557 63.0627 43.9558 63.1627C43.9558 60.4591 44.5297 57.8634 43.0555 55.7205C41.7629 53.8461 40.931 52.1297 40.0807 50.8924" fill="white"/>
</mask>
<g mask="url(#mask6_307_243)">
<path d="M46.6147 5.9917H2.85376V63.1629H46.6147V5.9917Z" fill="url(#paint6_linear_307_243)"/>
</g>
<mask id="mask7_307_243" style="mask-type:luminance" maskUnits="userSpaceOnUse" x="2" y="6" width="43" height="58">
<path d="M40.0148 50.9375C46.5488 41.7657 45.3984 34.7921 41.5522 26.1283C45.9328 24.2171 44.0847 18.386 43.9057 8.09797C43.8689 6.03405 43.7214 6.57109 42.729 7.49775C41.9655 8.21117 41.3153 9.07992 40.9625 10.3146C40.6677 11.3492 41.3916 14.266 41.8286 15.1822C39.0855 14.5451 35.3578 13.1472 34.5259 18.465C34.5259 19.1837 34.8682 20.2656 35.1525 20.7658C36.7715 23.63 39.9069 22.2322 40.3676 22.1242C39.7331 21.1554 38.2852 20.6631 39.2724 19.2047C40.3491 17.612 44.3059 19.8734 40.6808 22.785C39.7568 23.5274 39.1618 23.9749 38.1825 24.6383C38.5722 26.4785 39.9332 28.3212 40.3544 30.1219C39.591 29.5191 39.1882 28.7951 38.4695 28.029C37.2243 26.697 28.808 18.9704 18.6279 17.1408C9.92208 15.5823 3.15116 8.70609 2.79839 8.61659C2.78786 11.0886 4.30158 15.3612 5.46517 17.2566C6.13121 18.3412 6.80514 19.8339 7.46591 20.7263C9.41927 23.3536 13.5813 26.4258 16.6535 27.958C18.8912 29.0742 22.3504 30.5089 25.0487 30.5063C24.0984 31.9331 23.4113 32.0095 22.4767 33.7759C17.875 42.4475 28.4421 50.7769 35.6053 45.8093C37.5744 44.443 38.5458 41.7868 38.5458 40.7232C38.5458 38.7514 37.456 37.5168 37.0953 35.9741C36.8794 36.2505 36.6636 36.5269 36.4451 36.8007C36.4003 36.8639 36.345 36.9587 36.3029 37.0245C36.0791 37.3746 35.8501 37.8116 35.6211 38.1617C33.1149 41.9737 29.4214 39.4175 29.4214 37.4378C29.4214 33.3679 35.2578 31.1433 38.8986 34.5288C39.4988 35.0869 40.436 36.6954 40.7282 37.4378C43.574 44.672 36.5793 48.2444 35.2604 50.2083C36.3371 52.3591 38.1667 54.7679 39.562 56.8502C40.8783 58.8167 42.1946 60.7833 43.5135 62.7498C43.8294 63.1578 43.7925 63.1052 43.8926 63.2052C43.8926 60.5016 44.4664 57.9059 42.9922 55.763C41.6996 53.8886 40.8677 52.1722 40.0174 50.9349" fill="white"/>
</mask>
<g mask="url(#mask7_307_243)">
<path d="M46.5488 6.03418H2.78784V63.2053H46.5488V6.03418Z" fill="url(#paint7_linear_307_243)"/>
</g>
<mask id="mask8_307_243" style="mask-type:luminance" maskUnits="userSpaceOnUse" x="2" y="6" width="43" height="58">
<path d="M39.9489 50.9795C46.4829 41.8077 45.3325 34.8341 41.4863 26.1703C45.8669 24.2591 44.0188 18.428 43.8398 8.13997C43.8029 6.07604 43.6555 6.61308 42.663 7.53974C41.8996 8.25317 41.2494 9.12191 40.8966 10.3566C40.6018 11.3912 41.3257 14.308 41.7627 15.2242C39.0196 14.5871 35.2919 13.1892 34.46 18.507C34.46 19.2256 34.8022 20.3076 35.0866 20.8078C36.7056 23.672 39.8409 22.2741 40.3016 22.1662C39.6672 21.1974 38.2193 20.7051 39.2065 19.2467C40.2832 17.654 44.2399 19.9154 40.6149 22.827C39.6909 23.5694 39.0959 24.0169 38.1166 24.6803C38.5062 26.5205 39.8673 28.3632 40.2885 30.1639C39.525 29.5611 39.1223 28.8371 38.4036 28.071C37.1584 26.739 28.7421 19.0124 18.562 17.1828C9.8588 15.6243 3.08787 8.74809 2.73248 8.65858C2.72195 11.1305 4.23566 15.4032 5.39925 17.2986C6.06529 18.3832 6.73922 19.8759 7.39999 20.7683C9.35335 23.3956 13.5154 26.4678 16.5876 27.9999C18.8253 29.1161 22.2845 30.5509 24.9828 30.5483C24.0325 31.9751 23.3454 32.0514 22.4108 33.8179C17.8091 42.4895 28.3762 50.8189 35.5394 45.8513C37.5085 44.485 38.4799 41.8288 38.4799 40.7652C38.4799 38.7934 37.39 37.5587 37.0294 36.0161C36.8135 36.2925 36.5976 36.5689 36.3791 36.8427C36.3344 36.9059 36.2791 37.0006 36.237 37.0665C36.0132 37.4166 35.7842 37.8536 35.5551 38.2037C33.049 42.0157 29.3555 39.4594 29.3555 37.4798C29.3555 33.4098 35.1919 31.1853 38.8327 34.5708C39.4329 35.1289 40.3701 36.7374 40.6623 37.4798C43.5081 44.714 36.5134 48.2864 35.1945 50.2503C36.2712 52.4011 38.1008 54.8099 39.4961 56.8922C40.8124 58.8587 42.1286 60.8253 43.4475 62.7918C43.7635 63.1998 43.7266 63.1472 43.8266 63.2472C43.8266 60.5436 44.4005 57.9479 42.9263 55.805C41.6337 53.9306 40.8018 52.2142 39.9515 50.9769" fill="white"/>
</mask>
<g mask="url(#mask8_307_243)">
<path d="M46.4855 6.07617H2.72461V63.2473H46.4855V6.07617Z" fill="url(#paint8_linear_307_243)"/>
</g>
<mask id="mask9_307_243" style="mask-type:luminance" maskUnits="userSpaceOnUse" x="2" y="6" width="43" height="58">
<path d="M39.8859 51.0215C46.4199 41.8497 45.2695 34.876 41.4233 26.2123C45.8039 24.3011 43.9558 18.47 43.7768 8.18196C43.74 6.11804 43.5925 6.65508 42.6001 7.58174C41.8366 8.29516 41.1864 9.1639 40.8336 10.3986C40.5388 11.4332 41.2627 14.35 41.6997 15.2662C38.9566 14.6291 35.2289 13.2312 34.397 18.549C34.397 19.2676 34.7393 20.3496 35.0236 20.8498C36.6426 23.714 39.778 22.3161 40.2387 22.2082C39.6042 21.2394 38.1563 20.7471 39.1435 19.2887C40.2202 17.696 44.177 19.9574 40.5519 22.869C39.6279 23.6114 39.0329 24.0589 38.0536 24.7223C38.4433 26.5624 39.8043 28.4052 40.2255 30.2059C39.4621 29.603 39.0593 28.8791 38.3406 28.113C37.0954 26.7809 28.6791 19.0544 18.499 17.2248C9.79318 15.6663 3.02225 8.79008 2.66949 8.70057C2.65896 11.1725 4.17268 15.4452 5.33626 17.3406C6.0023 18.4252 6.67623 19.9179 7.33701 20.8103C9.29036 23.4376 13.4524 26.5098 16.5246 28.0419C18.7623 29.1581 22.2215 30.5929 24.9198 30.5903C23.9695 32.0171 23.2824 32.0934 22.3478 33.8599C17.7461 42.5315 28.3132 50.8609 35.4764 45.8933C37.4455 44.527 38.4169 41.8707 38.4169 40.8072C38.4169 38.8354 37.3271 37.6007 36.9664 36.0581C36.7505 36.3345 36.5347 36.6109 36.3162 36.8847C36.2714 36.9479 36.2161 37.0426 36.174 37.1085C35.9502 37.4586 35.7212 37.8956 35.4922 38.2457C32.986 42.0577 29.2925 39.5014 29.2925 37.5218C29.2925 33.4518 35.1289 31.2273 38.7697 34.6128C39.3699 35.1709 40.3071 36.7794 40.5993 37.5218C43.4451 44.756 36.4504 48.3284 35.1315 50.2923C36.2082 52.4431 38.0378 54.8519 39.4331 56.9342C40.7494 58.9007 42.0657 60.8672 43.3846 62.8338C43.7005 63.2418 43.6636 63.1892 43.7636 63.2892C43.7636 60.5856 44.3375 57.9899 42.8633 55.847C41.5707 53.9726 40.7388 52.2562 39.8885 51.0189" fill="white"/>
</mask>
<g mask="url(#mask9_307_243)">
<path d="M46.4199 6.11816H2.65894V63.2893H46.4199V6.11816Z" fill="url(#paint9_linear_307_243)"/>
</g>
<mask id="mask10_307_243" style="mask-type:luminance" maskUnits="userSpaceOnUse" x="2" y="6" width="43" height="58">
<path d="M39.82 51.0635C46.354 41.8917 45.2036 34.918 41.3574 26.2543C45.738 24.3431 43.8899 18.512 43.7109 8.22395C43.674 6.16003 43.5266 6.69707 42.5341 7.62373C41.7707 8.33715 41.1205 9.20589 40.7677 10.4406C40.4729 11.4752 41.1968 14.392 41.6338 15.3082C38.8907 14.6711 35.163 13.2732 34.3311 18.5909C34.3311 19.3096 34.6733 20.3916 34.9576 20.8918C36.5767 23.756 39.712 22.3581 40.1727 22.2502C39.5383 21.2814 38.0904 20.7891 39.0776 19.3307C40.1543 17.738 44.111 19.9994 40.486 22.911C39.562 23.6533 38.967 24.1009 37.9877 24.7643C38.3773 26.6044 39.7384 28.4472 40.1596 30.2479C39.3961 29.645 38.9934 28.9211 38.2747 28.155C37.0295 26.8229 28.6132 19.0964 18.4331 17.2668C9.72989 15.7083 2.95896 8.83207 2.60357 8.74256C2.59304 11.2145 4.10676 15.4872 5.27035 17.3826C5.93638 18.4672 6.61032 19.9599 7.27109 20.8523C9.22444 23.4796 13.3865 26.5492 16.4587 28.0839C18.6964 29.2001 22.1555 30.6349 24.8539 30.6322C23.9036 32.0591 23.2165 32.1354 22.2819 33.9019C17.6802 42.5735 28.2473 50.9029 35.4104 45.9353C37.3796 44.569 38.351 41.9127 38.351 40.8492C38.351 38.8774 37.2611 37.6427 36.9005 36.1001C36.6846 36.3765 36.4687 36.6529 36.2502 36.9267C36.2055 36.9899 36.1502 37.0846 36.1081 37.1504C35.8843 37.5006 35.6553 37.9376 35.4262 38.2877C32.9201 42.0996 29.2266 39.5434 29.2266 37.5638C29.2266 33.4938 35.063 31.2693 38.7038 34.6548C39.304 35.2129 40.2412 36.8214 40.5334 37.5638C43.3792 44.798 36.3845 48.3704 35.0656 50.3343C36.1423 52.4851 37.9719 54.8939 39.3672 56.9762C40.6835 58.9427 41.9997 60.9092 43.3186 62.8758C43.6345 63.2838 43.5977 63.2312 43.6977 63.3312C43.6977 60.6276 44.2716 58.0319 42.7974 55.889C41.5048 54.0146 40.6729 52.2982 39.8226 51.0609" fill="white"/>
</mask>
<g mask="url(#mask10_307_243)">
<path d="M46.3566 6.16016H2.5957V63.3313H46.3566V6.16016Z" fill="url(#paint10_linear_307_243)"/>
</g>
<mask id="mask11_307_243" style="mask-type:luminance" maskUnits="userSpaceOnUse" x="2" y="6" width="43" height="58">
<path d="M39.7567 51.106C46.2907 41.9342 45.1403 34.9605 41.2942 26.2968C45.6747 24.3856 43.8267 18.5544 43.6477 8.26643C43.6108 6.20251 43.4634 6.73955 42.4709 7.66621C41.7075 8.37963 41.0572 9.24837 40.7045 10.483C40.4096 11.5176 41.1336 14.4345 41.5706 15.3506C38.8275 14.7136 35.0998 13.3157 34.2679 18.6334C34.2679 19.3521 34.6101 20.4341 34.8944 20.9343C36.5134 23.7985 39.6488 22.4006 40.1095 22.2927C39.4751 21.3239 38.0272 20.8316 39.0144 19.3732C40.0911 17.7805 44.0478 20.0418 40.4228 22.9534C39.4988 23.6958 38.9038 24.1434 37.9245 24.8068C38.3141 26.6469 39.6751 28.4897 40.0963 30.2904C39.3329 29.6875 38.9301 28.9636 38.2114 28.1975C36.9662 26.8654 28.55 19.1389 18.3699 17.3093C9.66403 15.7508 2.8931 8.87192 2.54034 8.78504C2.52981 11.257 4.04353 15.5296 5.20711 17.4251C5.87315 18.5097 6.54708 20.0024 7.20785 20.8948C9.16121 23.5221 13.3233 26.5943 16.3955 28.1264C18.6331 29.2426 22.0923 30.6774 24.7907 30.6747C23.8403 32.1016 23.1532 32.1779 22.2187 33.9444C17.617 42.616 28.184 50.9454 35.3472 45.9778C37.3164 44.6115 38.2878 41.9552 38.2878 40.8917C38.2878 38.9199 37.1979 37.6852 36.8372 36.1425C36.6214 36.419 36.4055 36.6954 36.187 36.9692C36.1423 37.0323 36.087 37.1271 36.0448 37.1929C35.8211 37.5431 35.592 37.9801 35.363 38.3302C32.8568 42.1421 29.1633 39.5859 29.1633 37.6062C29.1633 33.5363 34.9997 31.3118 38.6405 34.6973C39.2408 35.2554 40.178 36.8639 40.4702 37.6062C43.316 44.8405 36.3213 48.4129 35.0024 50.3768C36.0791 52.5275 37.9087 54.9363 39.3039 57.0187C40.6202 58.9852 41.9365 60.9517 43.2554 62.9182C43.5713 63.3263 43.5345 63.2736 43.6345 63.3737C43.6345 60.67 44.2084 58.0743 42.7342 55.9314C41.4416 54.0571 40.6097 52.3406 39.7594 51.1033" fill="white"/>
</mask>
<g mask="url(#mask11_307_243)">
<path d="M46.2907 6.20264H2.52979V63.3738H46.2907V6.20264Z" fill="url(#paint11_linear_307_243)"/>
</g>
<mask id="mask12_307_243" style="mask-type:luminance" maskUnits="userSpaceOnUse" x="2" y="6" width="43" height="58">
<path d="M39.6911 51.148C46.2251 41.9761 45.0746 35.0025 41.2285 26.3388C45.609 24.4275 43.761 18.5964 43.582 8.30842C43.5451 6.2445 43.3977 6.78154 42.4052 7.7082C41.6418 8.42162 40.9916 9.29037 40.6388 10.525C40.3439 11.5596 41.0679 14.4765 41.5049 15.3926C38.7618 14.7555 35.0341 13.3577 34.2022 18.6754C34.2022 19.3941 34.5444 20.4761 34.8287 20.9763C36.4478 23.8405 39.5831 22.4426 40.0438 22.3347C39.4094 21.3659 37.9615 20.8736 38.9487 19.4152C40.0254 17.8225 43.9821 20.0838 40.3571 22.9954C39.4331 23.7378 38.8381 24.1854 37.8588 24.8488C38.2484 26.6889 39.6095 28.5317 40.0307 30.3324C39.2672 29.7295 38.8644 29.0056 38.1458 28.2395C36.9006 26.9074 28.4843 19.1809 18.3042 17.3512C9.60099 15.7901 2.83006 8.91391 2.47466 8.82704C2.46413 11.299 3.97785 15.5716 5.14144 17.4671C5.80748 18.5517 6.48141 20.0443 7.14218 20.9368C9.09554 23.5641 13.2576 26.6336 16.3298 28.1684C18.5675 29.2846 22.0266 30.7193 24.725 30.7167C23.7747 32.1436 23.0876 32.2199 22.153 33.9863C17.5513 42.658 28.1184 50.9874 35.2815 46.0197C37.2507 44.6535 38.2221 41.9972 38.2221 40.9337C38.2221 38.9619 37.1322 37.7272 36.7716 36.1845C36.5557 36.4609 36.3398 36.7374 36.1213 37.0112C36.0766 37.0743 36.0213 37.1691 35.9792 37.2349C35.7554 37.585 35.5264 38.0221 35.2973 38.3722C32.7911 42.1841 29.0977 39.6279 29.0977 37.6482C29.0977 33.5783 34.934 31.3538 38.5749 34.7393C39.1751 35.2974 40.1123 36.9058 40.4045 37.6482C43.2503 44.8825 36.2556 48.4549 34.9367 50.4187C36.0134 52.5695 37.843 54.9783 39.2383 57.0607C40.5545 59.0272 41.8708 60.9937 43.1897 62.9602C43.5056 63.3683 43.4688 63.3156 43.5688 63.4157C43.5688 60.712 44.1427 58.1163 42.6685 55.9734C41.3759 54.0991 40.544 52.3826 39.6937 51.1453" fill="white"/>
</mask>
<g mask="url(#mask12_307_243)">
<path d="M46.2277 6.24463H2.4668V63.4158H46.2277V6.24463Z" fill="url(#paint12_linear_307_243)"/>
</g>
<mask id="mask13_307_243" style="mask-type:luminance" maskUnits="userSpaceOnUse" x="2" y="6" width="43" height="58">
<path d="M39.6278 51.19C46.1618 42.0181 45.0114 35.0445 41.1652 26.3808C45.5458 24.4695 43.6978 18.6384 43.5187 8.35041C43.4819 6.28649 43.3345 6.82353 42.342 7.75019C41.5786 8.46362 40.9283 9.33236 40.5756 10.567C40.2807 11.6016 41.0047 14.5185 41.4417 15.4346C38.6985 14.7975 34.9708 13.3997 34.139 18.7174C34.139 19.4361 34.4812 20.5181 34.7655 21.0183C36.3845 23.8825 39.5199 22.4846 39.9806 22.3767C39.3462 21.4079 37.8983 20.9156 38.8855 19.4572C39.9622 17.8645 43.9189 20.1258 40.2939 23.0374C39.3698 23.7798 38.7749 24.2273 37.7956 24.8907C38.1852 26.7309 39.5462 28.5737 39.9674 30.3744C39.204 29.7715 38.8012 29.0475 38.0825 28.2815C36.8373 26.9494 28.4211 19.2229 18.241 17.3932C9.53512 15.8321 2.76419 8.9559 2.41143 8.8664C2.4009 11.3384 3.91462 15.611 5.07821 17.5064C5.74424 18.591 6.41818 20.0837 7.07895 20.9761C9.0323 23.6034 13.1944 26.6756 16.2666 28.2078C18.5042 29.324 21.9634 30.7587 24.6618 30.7561C23.7114 32.1829 23.0243 32.2593 22.0898 34.0257C17.4881 42.6973 28.0551 51.0267 35.2183 46.0591C37.1875 44.6928 38.1589 42.0366 38.1589 40.973C38.1589 39.0012 37.069 37.7666 36.7083 36.2239C36.4925 36.5003 36.2766 36.7767 36.0581 37.0505C36.0133 37.1137 35.9581 37.2085 35.9159 37.2743C35.6922 37.6244 35.4631 38.0614 35.2341 38.4115C32.7279 42.2235 29.0344 39.6673 29.0344 37.6876C29.0344 33.6177 34.8708 31.3932 38.5116 34.7786C39.1119 35.3367 40.049 36.9452 40.3413 37.6876C43.187 44.9218 36.1924 48.4942 34.8734 50.4581C35.9502 52.6089 37.7798 55.0177 39.175 57.1C40.4913 59.0666 41.8076 61.0331 43.1265 62.9996C43.4424 63.4076 43.4056 63.355 43.5056 63.455C43.5056 60.7514 44.0795 58.1557 42.6053 56.0128C41.3127 54.1384 40.4808 52.422 39.6305 51.1847" fill="white"/>
</mask>
<g mask="url(#mask13_307_243)">
<path d="M46.1618 6.28369H2.40088V63.4548H46.1618V6.28369Z" fill="url(#paint13_linear_307_243)"/>
</g>
<mask id="mask14_307_243" style="mask-type:luminance" maskUnits="userSpaceOnUse" x="2" y="6" width="43" height="58">
<path d="M39.5619 51.2295C46.0959 42.0577 44.9455 35.0841 41.0993 26.4203C45.4799 24.5091 43.6318 18.678 43.4528 8.38997C43.416 6.32604 43.2686 6.86308 42.2761 7.78974C41.5126 8.50317 40.8624 9.37191 40.5096 10.6066C40.2148 11.6412 40.9387 14.558 41.3757 15.4742C38.6326 14.8371 34.9049 13.4392 34.073 18.757C34.073 19.4756 34.4153 20.5576 34.6996 21.0578C36.3186 23.922 39.454 22.5241 39.9147 22.4162C39.2802 21.4474 37.8323 20.9551 38.8195 19.4967C39.8963 17.904 43.853 20.1654 40.228 23.077C39.3039 23.8194 38.709 24.2669 37.7297 24.9303C38.1193 26.7705 39.4803 28.6132 39.9015 30.4139C39.1381 29.8111 38.7353 29.0871 38.0166 28.321C36.7714 26.989 28.3551 19.2624 18.1751 17.4328C9.47183 15.8743 2.69828 8.99809 2.34551 8.90858C2.33498 11.3805 3.8487 15.6532 5.01229 17.5486C5.67833 18.6332 6.35226 20.1259 7.01303 21.0183C8.96638 23.6456 13.1285 26.7152 16.2006 28.2499C18.4383 29.3661 21.8975 30.8009 24.5959 30.7983C23.6455 32.2251 22.9584 32.3014 22.0239 34.0679C17.4221 42.7395 27.9892 51.0689 35.1524 46.1013C37.1215 44.735 38.093 42.0788 38.093 41.0152C38.093 39.0434 37.0031 37.8087 36.6424 36.2661C36.4265 36.5425 36.2107 36.8189 35.9922 37.0927C35.9474 37.1559 35.8921 37.2506 35.85 37.3165C35.6263 37.6666 35.3972 38.1036 35.1682 38.4537C32.662 42.2657 28.9685 39.7095 28.9685 37.7298C28.9685 33.6598 34.8049 31.4353 38.4457 34.8208C39.0459 35.3789 39.9831 36.9874 40.2753 37.7298C43.1211 44.964 36.1264 48.5364 34.8075 50.5003C35.8842 52.6511 37.7139 55.0599 39.1091 57.1422C40.4254 59.1087 41.7417 61.0753 43.0606 63.0418C43.3765 63.4498 43.3396 63.3972 43.4397 63.4972C43.4397 60.7936 44.0136 58.1979 42.5393 56.055C41.2468 54.1806 40.4149 52.4642 39.5646 51.2269" fill="white"/>
</mask>
<g mask="url(#mask14_307_243)">
<path d="M46.0986 6.32617H2.33765V63.4973H46.0986V6.32617Z" fill="url(#paint14_linear_307_243)"/>
</g>
<mask id="mask15_307_243" style="mask-type:luminance" maskUnits="userSpaceOnUse" x="2" y="7" width="43" height="57">
<path d="M39.4989 51.2715C46.0329 42.0997 44.8825 35.126 41.0363 26.4623C45.4169 24.5511 43.5689 18.72 43.3898 8.43196C43.353 6.36804 43.2056 6.90508 42.2131 7.83174C41.4497 8.54516 40.7994 9.4139 40.4466 10.6486C40.1518 11.6832 40.8758 14.6 41.3128 15.5162C38.5696 14.8791 34.8419 13.4812 34.0101 18.799C34.0101 19.5176 34.3523 20.5996 34.6366 21.0998C36.2556 23.964 39.391 22.5661 39.8517 22.4582C39.2172 21.4894 37.7693 20.9971 38.7565 19.5387C39.8333 17.946 43.79 20.2074 40.165 23.119C39.2409 23.8614 38.646 24.3089 37.6667 24.9723C38.0563 26.8124 39.4173 28.6552 39.8385 30.4559C39.0751 29.853 38.6723 29.1291 37.9536 28.363C36.7084 27.0309 28.2922 19.3044 18.1121 17.4748C9.40622 15.9163 2.63529 9.04008 2.28253 8.95057C2.272 11.4225 3.78571 15.6952 4.9493 17.5906C5.61534 18.6752 6.28927 20.1679 6.95004 21.0603C8.9034 23.6876 13.0655 26.7598 16.1377 28.2919C18.3753 29.4081 21.8345 30.8429 24.5329 30.8403C23.5825 32.2671 22.8954 32.3434 21.9609 34.1099C17.3592 42.7815 27.9262 51.1109 35.0894 46.1433C37.0586 44.777 38.03 42.1207 38.03 41.0572C38.03 39.0854 36.9401 37.8507 36.5794 36.3081C36.3636 36.5845 36.1477 36.8609 35.9292 37.1347C35.8844 37.1979 35.8292 37.2926 35.787 37.3585C35.5633 37.7086 35.3342 38.1456 35.1052 38.4957C32.599 42.3077 28.9055 39.7514 28.9055 37.7718C28.9055 33.7018 34.7419 31.4773 38.3827 34.8628C38.9829 35.4209 39.9201 37.0294 40.2124 37.7718C43.0581 45.006 36.0634 48.5784 34.7445 50.5423C35.8213 52.6931 37.6509 55.1019 39.0461 57.1842C40.3624 59.1507 41.6787 61.1172 42.9976 63.0838C43.3135 63.4918 43.2766 63.4392 43.3767 63.5392C43.3767 60.8356 43.9506 58.2399 42.4763 56.097C41.1838 54.2226 40.3519 52.5062 39.5016 51.2689" fill="white"/>
</mask>
<g mask="url(#mask15_307_243)">
<path d="M46.0329 6.36816H2.27197V63.5393H46.0329V6.36816Z" fill="url(#paint15_linear_307_243)"/>
</g>
<mask id="mask16_307_243" style="mask-type:luminance" maskUnits="userSpaceOnUse" x="2" y="7" width="43" height="57">
<path d="M39.433 51.3135C45.967 42.1417 44.8166 35.168 40.9704 26.5043C45.351 24.5931 43.5029 18.762 43.3239 8.47395C43.2871 6.41003 43.1396 6.94707 42.1472 7.87373C41.3837 8.58715 40.7335 9.45589 40.3807 10.6906C40.0859 11.7252 40.8098 14.642 41.2468 15.5582C38.5037 14.9211 34.776 13.5232 33.9441 18.8409C33.9441 19.5596 34.2864 20.6416 34.5707 21.1418C36.1897 24.006 39.3251 22.6081 39.7858 22.5002C39.1513 21.5314 37.7034 21.0391 38.6906 19.5807C39.7673 17.988 43.7241 20.2494 40.099 23.161C39.175 23.9033 38.5801 24.3509 37.6008 25.0143C37.9904 26.8544 39.3514 28.6972 39.7726 30.4979C39.0092 29.895 38.6064 29.1711 37.8877 28.405C36.6425 27.0729 28.2262 19.3464 18.0462 17.5168C9.34293 15.9583 2.56937 9.08207 2.21661 8.99256C2.20608 11.4645 3.7198 15.7372 4.88338 17.6326C5.54942 18.7172 6.22335 20.2099 6.88412 21.1023C8.83748 23.7296 12.9995 26.7992 16.0717 28.3339C18.3094 29.4501 21.7686 30.8849 24.4669 30.8822C23.5166 32.3091 22.8295 32.3854 21.8949 34.1519C17.2932 42.8235 27.8603 51.1529 35.0235 46.1853C36.9926 44.819 37.964 42.1627 37.964 41.0992C37.964 39.1274 36.8742 37.8927 36.5135 36.3501C36.2976 36.6265 36.0818 36.9029 35.8633 37.1767C35.8185 37.2399 35.7632 37.3346 35.7211 37.4004C35.4973 37.7506 35.2683 38.1876 35.0393 38.5377C32.5331 42.3496 28.8396 39.7934 28.8396 37.8138C28.8396 33.7438 34.676 31.5193 38.3168 34.9048C38.917 35.4629 39.8542 37.0714 40.1464 37.8138C42.9922 45.048 35.9975 48.6204 34.6786 50.5843C35.7553 52.7351 37.585 55.1439 38.9802 57.2262C40.2965 59.1927 41.6128 61.1592 42.9317 63.1258C43.2476 63.5338 43.2107 63.4812 43.3108 63.5812C43.3108 60.8776 43.8847 58.2819 42.4104 56.139C41.1178 54.2646 40.286 52.5482 39.4356 51.3109" fill="white"/>
</mask>
<g mask="url(#mask16_307_243)">
<path d="M45.9697 6.41016H2.20874V63.5813H45.9697V6.41016Z" fill="url(#paint16_linear_307_243)"/>
</g>
<mask id="mask17_307_243" style="mask-type:luminance" maskUnits="userSpaceOnUse" x="2" y="7" width="43" height="57">
<path d="M39.3698 51.356C45.9038 42.1842 44.7534 35.2105 40.9072 26.5468C45.2878 24.6356 43.4397 18.8044 43.2607 8.51643C43.2238 6.45251 43.0764 6.98955 42.0839 7.91621C41.3205 8.62963 40.6703 9.49837 40.3175 10.733C40.0227 11.7676 40.7466 14.6845 41.1836 15.6006C38.4405 14.9636 34.7128 13.5657 33.8809 18.8834C33.8809 19.6021 34.2231 20.6841 34.5075 21.1843C36.1265 24.0485 39.2618 22.6506 39.7225 22.5427C39.0881 21.5739 37.6402 21.0816 38.6274 19.6232C39.7041 18.0305 43.6608 20.2918 40.0358 23.2034C39.1118 23.9458 38.5168 24.3934 37.5375 25.0568C37.9271 26.8969 39.2882 28.7397 39.7094 30.5404C38.9459 29.9375 38.5432 29.2136 37.8245 28.4475C36.5793 27.1154 28.163 19.3889 17.9829 17.5593C9.27706 16.0008 2.50614 9.12455 2.15337 9.03504C2.14284 11.507 3.65656 15.7796 4.82015 17.6751C5.48619 18.7597 6.16012 20.2524 6.82089 21.1448C8.77425 23.7721 12.9363 26.8443 16.0085 28.3764C18.2462 29.4926 21.7053 30.9274 24.4037 30.9247C23.4534 32.3516 22.7663 32.4279 21.8317 34.1944C17.23 42.866 27.7971 51.1954 34.9603 46.2278C36.9294 44.8615 37.9008 42.2052 37.9008 41.1417C37.9008 39.1699 36.8109 37.9352 36.4503 36.3925C36.2344 36.669 36.0185 36.9454 35.8 37.2192C35.7553 37.2823 35.7 37.3771 35.6579 37.4429C35.4341 37.7931 35.2051 38.2301 34.976 38.5802C32.4699 42.3921 28.7764 39.8359 28.7764 37.8562C28.7764 33.7863 34.6128 31.5618 38.2536 34.9473C38.8538 35.5054 39.791 37.1139 40.0832 37.8562C42.929 45.0905 35.9343 48.6629 34.6154 50.6268C35.6921 52.7775 37.5217 55.1863 38.917 57.2687C40.2333 59.2352 41.5495 61.2017 42.8684 63.1682C43.1843 63.5763 43.1475 63.5236 43.2475 63.6237C43.2475 60.92 43.8214 58.3243 42.3472 56.1814C41.0546 54.3071 40.2227 52.5906 39.3724 51.3533" fill="white"/>
</mask>
<g mask="url(#mask17_307_243)">
<path d="M45.9037 6.45264H2.14282V63.6238H45.9037V6.45264Z" fill="url(#paint17_linear_307_243)"/>
</g>
<mask id="mask18_307_243" style="mask-type:luminance" maskUnits="userSpaceOnUse" x="2" y="7" width="42" height="57">
<path d="M39.3041 51.398C45.8381 42.2261 44.6877 35.2525 40.8415 26.5888C45.2221 24.6775 43.374 18.8464 43.195 8.55842C43.1582 6.4945 43.0107 7.03154 42.0183 7.9582C41.2548 8.67162 40.6046 9.54037 40.2518 10.775C39.957 11.8096 40.6809 14.7265 41.1179 15.6426C38.3748 15.0055 34.6471 13.6077 33.8152 18.9254C33.8152 19.6441 34.1575 20.7261 34.4418 21.2263C36.0608 24.0905 39.1962 22.6926 39.6569 22.5847C39.0224 21.6159 37.5745 21.1236 38.5617 19.6652C39.6384 18.0725 43.5952 20.3338 39.9701 23.2454C39.0461 23.9878 38.4512 24.4354 37.4718 25.0988C37.8615 26.9389 39.2225 28.7817 39.6437 30.5824C38.8803 29.9795 38.4775 29.2556 37.7588 28.4895C36.5136 27.1574 28.0973 19.4309 17.9172 17.6012C9.21402 16.0428 2.44046 9.16654 2.0877 9.07704C2.07717 11.549 3.59089 15.8216 4.75448 17.7171C5.42051 18.8017 6.09445 20.2943 6.75522 21.1868C8.70857 23.8141 12.8706 26.8863 15.9428 28.4184C18.1805 29.5346 21.6397 30.9693 24.338 30.9667C23.3877 32.3936 22.7006 32.4699 21.766 34.2363C17.1643 42.908 27.7314 51.2374 34.8946 46.2697C36.8637 44.9035 37.8351 42.2472 37.8351 41.1837C37.8351 39.2119 36.7453 37.9772 36.3846 36.4345C36.1687 36.7109 35.9529 36.9874 35.7344 37.2612C35.6896 37.3243 35.6343 37.4191 35.5922 37.4849C35.3684 37.835 35.1394 38.2721 34.9104 38.6222C32.4042 42.4341 28.7107 39.8779 28.7107 37.8982C28.7107 33.8283 34.5471 31.6038 38.1879 34.9893C38.7881 35.5474 39.7253 37.1559 40.0175 37.8982C42.8633 45.1325 35.8686 48.7049 34.5497 50.6687C35.6264 52.8195 37.4561 55.2283 38.8513 57.3107C40.1676 59.2772 41.4839 61.2437 42.8028 63.2102C43.1187 63.6183 43.0818 63.5656 43.1819 63.6657C43.1819 60.962 43.7558 58.3663 42.2815 56.2234C40.9889 54.3491 40.1571 52.6326 39.3067 51.3953" fill="white"/>
</mask>
<g mask="url(#mask18_307_243)">
<path d="M45.8408 6.49463H2.07983V63.6658H45.8408V6.49463Z" fill="url(#paint18_linear_307_243)"/>
</g>
<mask id="mask19_307_243" style="mask-type:luminance" maskUnits="userSpaceOnUse" x="2" y="7" width="42" height="57">
<path d="M39.2409 51.44C45.7749 42.2681 44.6244 35.2945 40.7783 26.6308C45.1589 24.7195 43.3108 18.8884 43.1318 8.60041C43.0949 6.53649 42.9475 7.07353 41.955 8.00019C41.1916 8.71362 40.5414 9.58236 40.1886 10.817C39.8937 11.8516 40.6177 14.7685 41.0547 15.6846C38.3116 15.0475 34.5839 13.6497 33.752 18.9674C33.752 19.6861 34.0942 20.7681 34.3785 21.2683C35.9976 24.1325 39.1329 22.7346 39.5936 22.6267C38.9592 21.6579 37.5113 21.1656 38.4985 19.7072C39.5752 18.1145 43.5319 20.3758 39.9069 23.2874C38.9829 24.0298 38.3879 24.4773 37.4086 25.1407C37.7982 26.9809 39.1593 28.8237 39.5805 30.6244C38.817 30.0215 38.4143 29.2975 37.6956 28.5315C36.4504 27.1994 28.0341 19.4729 17.854 17.6432C9.14816 16.0821 2.37723 9.2059 2.02447 9.11903C2.01394 11.591 3.52766 15.8636 4.69125 17.7591C5.35728 18.8437 6.03121 20.3363 6.69199 21.2288C8.64534 23.8561 12.8074 26.9283 15.8796 28.4604C18.1173 29.5766 21.5764 31.0113 24.2748 31.0087C23.3245 32.4356 22.6374 32.5119 21.7028 34.2783C17.1011 42.95 27.6682 51.2794 34.8313 46.3117C36.8005 44.9454 37.7719 42.2892 37.7719 41.2257C37.7719 39.2539 36.682 38.0192 36.3214 36.4765C36.1055 36.7529 35.8896 37.0294 35.6711 37.3031C35.6264 37.3663 35.5711 37.4611 35.529 37.5269C35.3052 37.877 35.0762 38.314 34.8471 38.6642C32.341 42.4761 28.6475 39.9199 28.6475 37.9402C28.6475 33.8703 34.4839 31.6458 38.1247 35.0313C38.7249 35.5894 39.6621 37.1978 39.9543 37.9402C42.8001 45.1745 35.8054 48.7469 34.4865 50.7107C35.5632 52.8615 37.3928 55.2703 38.7881 57.3527C40.1044 59.3192 41.4206 61.2857 42.7395 63.2522C43.0554 63.6603 43.0186 63.6076 43.1186 63.7077C43.1186 61.004 43.6925 58.4083 42.2183 56.2654C40.9257 54.391 40.0938 52.6746 39.2435 51.4373" fill="white"/>
</mask>
<g mask="url(#mask19_307_243)">
<path d="M45.7748 6.53662H2.01392V63.7078H45.7748V6.53662Z" fill="url(#paint19_linear_307_243)"/>
</g>
<mask id="mask20_307_243" style="mask-type:luminance" maskUnits="userSpaceOnUse" x="1" y="7" width="43" height="57">
<path d="M39.175 51.4824C45.709 42.3106 44.5585 35.337 40.7124 26.6733C45.0929 24.762 43.2449 18.9309 43.0659 8.6429C43.029 6.57897 42.8816 7.11601 41.8891 8.04267C41.1257 8.7561 40.4754 9.62484 40.1227 10.8595C39.8278 11.8941 40.5518 14.811 40.9888 15.7271C38.2457 15.09 34.518 13.6921 33.6861 19.0099C33.6861 19.7286 34.0283 20.8106 34.3126 21.3107C35.9317 24.175 39.067 22.7771 39.5277 22.6691C38.8933 21.7004 37.4454 21.2081 38.4326 19.7496C39.5093 18.1569 43.466 20.4183 39.841 23.3299C38.917 24.0723 38.322 24.5198 37.3427 25.1832C37.7323 27.0234 39.0933 28.8662 39.5146 30.6668C38.7511 30.064 38.3483 29.34 37.6297 28.574C36.3845 27.2419 27.9682 19.5153 17.7881 17.6857C9.08224 16.1246 2.31131 9.24838 1.95855 9.15888C1.94802 11.6308 3.46174 15.9035 4.62533 17.7989C5.29136 18.8835 5.9653 20.3762 6.62607 21.2686C8.57942 23.8959 12.7415 26.9681 15.8137 28.5002C18.0513 29.6164 21.5105 31.0512 24.2089 31.0486C23.2585 32.4754 22.5714 32.5517 21.6369 34.3182C17.0352 42.9898 27.6023 51.3192 34.7654 46.3516C36.7346 44.9853 37.706 42.329 37.706 41.2655C37.706 39.2937 36.6161 38.059 36.2555 36.5164C36.0396 36.7928 35.8237 37.0692 35.6052 37.343C35.5605 37.4062 35.5052 37.5009 35.4631 37.5668C35.2393 37.9169 35.0103 38.3539 34.7812 38.704C32.275 42.516 28.5816 39.9598 28.5816 37.9801C28.5816 33.9101 34.4179 31.6856 38.0588 35.0711C38.659 35.6292 39.5962 37.2377 39.8884 37.9801C42.7342 45.2143 35.7395 48.7867 34.4206 50.7506C35.4973 52.9014 37.3269 55.3102 38.7222 57.3925C40.0384 59.359 41.3547 61.3256 42.6736 63.2921C42.9895 63.7001 42.9527 63.6475 43.0527 63.7475C43.0527 61.0439 43.6266 58.4482 42.1524 56.3053C40.8598 54.4309 40.0279 52.7145 39.1776 51.4772" fill="white"/>
</mask>
<g mask="url(#mask20_307_243)">
<path d="M45.7089 6.57617H1.948V63.7473H45.7089V6.57617Z" fill="url(#paint20_linear_307_243)"/>
</g>
<mask id="mask21_307_243" style="mask-type:luminance" maskUnits="userSpaceOnUse" x="1" y="7" width="43" height="57">
<path d="M39.1117 51.5215C45.6457 42.3497 44.4953 35.376 40.6491 26.7123C45.0297 24.8011 43.1817 18.97 43.0026 8.68196C42.9658 6.61804 42.8184 7.15508 41.8259 8.08174C41.0624 8.79516 40.4122 9.6639 40.0594 10.8986C39.7646 11.9332 40.4885 14.85 40.9256 15.7662C38.1824 15.1291 34.4547 13.7312 33.6229 19.049C33.6229 19.7676 33.9651 20.8496 34.2494 21.3498C35.8684 24.214 39.0038 22.8161 39.4645 22.7082C38.83 21.7394 37.3821 21.2471 38.3693 19.7887C39.4461 18.196 43.4028 20.4574 39.7778 23.369C38.8537 24.1114 38.2588 24.5589 37.2795 25.2223C37.6691 27.0624 39.0301 28.9052 39.4513 30.7059C38.6879 30.103 38.2851 29.3791 37.5664 28.613C36.3212 27.2809 27.9049 19.5544 17.7249 17.7248C9.01901 16.1663 2.24808 9.29008 1.89532 9.20057C1.88479 11.6725 3.39851 15.9452 4.56209 17.8406C5.22813 18.9252 5.90206 20.4179 6.56284 21.3103C8.51619 23.9376 12.6783 27.0072 15.7504 28.5419C17.9881 29.6581 21.4473 31.0929 24.1457 31.0903C23.1953 32.5171 22.5082 32.5934 21.5737 34.3599C16.972 43.0315 27.539 51.3609 34.7022 46.3933C36.6713 45.027 37.6428 42.3707 37.6428 41.3072C37.6428 39.3354 36.5529 38.1007 36.1922 36.5581C35.9763 36.8345 35.7605 37.1109 35.542 37.3847C35.4972 37.4479 35.4419 37.5426 35.3998 37.6085C35.1761 37.9586 34.947 38.3956 34.718 38.7457C32.2118 42.5577 28.5183 40.0014 28.5183 38.0218C28.5183 33.9518 34.3547 31.7273 37.9955 35.1128C38.5957 35.6709 39.5329 37.2794 39.8251 38.0218C42.6709 45.256 35.6762 48.8284 34.3573 50.7923C35.434 52.9431 37.2637 55.3519 38.6589 57.4342C39.9752 59.4007 41.2915 61.3672 42.6104 63.3338C42.9263 63.7418 42.8894 63.6892 42.9895 63.7892C42.9895 61.0856 43.5634 58.4899 42.0891 56.347C40.7966 54.4726 39.9647 52.7562 39.1144 51.5189" fill="white"/>
</mask>
<g mask="url(#mask21_307_243)">
<path d="M45.6457 6.61816H1.88477V63.7893H45.6457V6.61816Z" fill="url(#paint21_linear_307_243)"/>
</g>
<mask id="mask22_307_243" style="mask-type:luminance" maskUnits="userSpaceOnUse" x="1" y="7" width="43" height="57">
<path d="M39.0461 51.564C45.58 42.3922 44.4296 35.4185 40.5835 26.7548C44.964 24.8436 43.116 19.0125 42.937 8.72444C42.9001 6.66052 42.7527 7.19756 41.7602 8.12422C40.9968 8.83764 40.3465 9.70638 39.9938 10.941C39.6989 11.9756 40.4229 14.8925 40.8599 15.8086C38.1168 15.1716 34.3891 13.7737 33.5572 19.0914C33.5572 19.8101 33.8994 20.8921 34.1837 21.3923C35.8027 24.2565 38.9381 22.8586 39.3988 22.7507C38.7644 21.7819 37.3165 21.2896 38.3037 19.8312C39.3804 18.2385 43.3371 20.4998 39.7121 23.4115C38.7881 24.1538 38.1931 24.6014 37.2138 25.2648C37.6034 27.1049 38.9644 28.9477 39.3856 30.7484C38.6222 30.1455 38.2194 29.4216 37.5007 28.6555C36.2555 27.3234 27.8393 19.5969 17.6592 17.7673C8.95333 16.2088 2.18241 9.33256 1.82964 9.24305C1.81911 11.715 3.33283 15.9877 4.49642 17.8831C5.16246 18.9677 5.83639 20.4604 6.49716 21.3528C8.45052 23.9801 12.6126 27.0523 15.6848 28.5844C17.9224 29.7006 21.3816 31.1354 24.08 31.1327C23.1296 32.5596 22.4425 32.6359 21.508 34.4024C16.9063 43.074 27.4733 51.4034 34.6365 46.4358C36.6057 45.0695 37.5771 42.4132 37.5771 41.3497C37.5771 39.3779 36.4872 38.1432 36.1265 36.6005C35.9107 36.877 35.6948 37.1534 35.4763 37.4272C35.4316 37.4903 35.3763 37.5851 35.3342 37.6509C35.1104 38.0011 34.8814 38.4381 34.6523 38.7882C32.1461 42.6001 28.4527 40.0439 28.4527 38.0642C28.4527 33.9943 34.289 31.7698 37.9298 35.1553C38.5301 35.7134 39.4673 37.3219 39.7595 38.0642C42.6053 45.2985 35.6106 48.8709 34.2917 50.8348C35.3684 52.9856 37.198 55.3943 38.5933 57.4767C39.9095 59.4432 41.2258 61.4097 42.5447 63.3762C42.8606 63.7843 42.8238 63.7316 42.9238 63.8317C42.9238 61.128 43.4977 58.5323 42.0235 56.3895C40.7309 54.5151 39.899 52.7986 39.0487 51.5613" fill="white"/>
</mask>
<g mask="url(#mask22_307_243)">
<path d="M45.58 6.66064H1.81909V63.8318H45.58V6.66064Z" fill="url(#paint22_linear_307_243)"/>
</g>
<mask id="mask23_307_243" style="mask-type:luminance" maskUnits="userSpaceOnUse" x="1" y="7" width="43" height="57">
<path d="M38.9828 51.606C45.5168 42.4342 44.3664 35.4605 40.5202 26.7968C44.9008 24.8856 43.0527 19.0544 42.8737 8.76643C42.8369 6.70251 42.6895 7.23955 41.697 8.16621C40.9335 8.87963 40.2833 9.74837 39.9305 10.983C39.6357 12.0176 40.3596 14.9345 40.7966 15.8506C38.0535 15.2136 34.3258 13.8157 33.4939 19.1334C33.4939 19.8521 33.8362 20.9341 34.1205 21.4343C35.7395 24.2985 38.8749 22.9006 39.3356 22.7927C38.7011 21.8239 37.2532 21.3316 38.2404 19.8732C39.3172 18.2805 43.2739 20.5418 39.6489 23.4534C38.7248 24.1958 38.1299 24.6434 37.1506 25.3068C37.5402 27.1469 38.9012 28.9897 39.3224 30.7904C38.559 30.1875 38.1562 29.4636 37.4375 28.6975C36.1923 27.3654 27.776 19.6389 17.596 17.8093C8.8901 16.2508 2.11917 9.37455 1.76641 9.28504C1.75588 11.757 3.2696 16.0296 4.43319 17.9251C5.09922 19.0097 5.77316 20.5024 6.43393 21.3948C8.38728 24.0221 12.5493 27.0916 15.6215 28.6264C17.8592 29.7426 21.3184 31.1774 24.0168 31.1747C23.0664 32.6016 22.3793 32.6779 21.4447 34.4444C16.843 43.116 27.4101 51.4454 34.5733 46.4778C36.5424 45.1115 37.5139 42.4552 37.5139 41.3917C37.5139 39.4199 36.424 38.1852 36.0633 36.6425C35.8474 36.919 35.6316 37.1954 35.4131 37.4692C35.3683 37.5323 35.313 37.6271 35.2709 37.6929C35.0471 38.0431 34.8181 38.4801 34.5891 38.8302C32.0829 42.6421 28.3894 40.0859 28.3894 38.1062C28.3894 34.0363 34.2258 31.8118 37.8666 35.1973C38.4668 35.7554 39.404 37.3639 39.6962 38.1062C42.542 45.3405 35.5473 48.9129 34.2284 50.8768C35.3051 53.0275 37.1348 55.4363 38.53 57.5187C39.8463 59.4852 41.1626 61.4517 42.4815 63.4182C42.7974 63.8263 42.7605 63.7736 42.8606 63.8737C42.8606 61.17 43.4345 58.5743 41.9602 56.4314C40.6677 54.5571 39.8358 52.8406 38.9855 51.6033" fill="white"/>
</mask>
<g mask="url(#mask23_307_243)">
<path d="M45.5168 6.70264H1.75586V63.8738H45.5168V6.70264Z" fill="url(#paint23_linear_307_243)"/>
</g>
<mask id="mask24_307_243" style="mask-type:luminance" maskUnits="userSpaceOnUse" x="1" y="7" width="43" height="57">
<path d="M38.9171 51.648C45.4511 42.4761 44.3007 35.5025 40.4546 26.8388C44.8351 24.9275 42.9871 19.0964 42.8081 8.80842C42.7712 6.7445 42.6238 7.28154 41.6313 8.2082C40.8679 8.92162 40.2176 9.79037 39.8649 11.025C39.57 12.0596 40.294 14.9765 40.731 15.8926C37.9879 15.2555 34.2602 13.8577 33.4283 19.1754C33.4283 19.8941 33.7705 20.9761 34.0548 21.4763C35.6738 24.3405 38.8092 22.9426 39.2699 22.8347C38.6355 21.8659 37.1876 21.3736 38.1748 19.9152C39.2515 18.3225 43.2082 20.5838 39.5832 23.4954C38.6592 24.2378 38.0642 24.6854 37.0849 25.3488C37.4745 27.1889 38.8355 29.0317 39.2567 30.8324C38.4933 30.2295 38.0905 29.5056 37.3718 28.7395C36.1266 27.4074 27.7104 19.6809 17.5303 17.8512C8.82443 16.2928 2.0535 9.41654 1.70074 9.32704C1.69021 11.799 3.20393 16.0716 4.36751 17.9671C5.03355 19.0517 5.70748 20.5443 6.36826 21.4368C8.32161 24.0641 12.4837 27.1363 15.5559 28.6684C17.7935 29.7846 21.2527 31.2193 23.9511 31.2167C23.0007 32.6436 22.3136 32.7199 21.3791 34.4863C16.7774 43.158 27.3444 51.4874 34.5076 46.5197C36.4768 45.1535 37.4482 42.4972 37.4482 41.4337C37.4482 39.4619 36.3583 38.2272 35.9976 36.6845C35.7818 36.9609 35.5659 37.2374 35.3474 37.5112C35.3027 37.5743 35.2474 37.6691 35.2052 37.7349C34.9815 38.085 34.7524 38.5221 34.5234 38.8722C32.0172 42.6841 28.3237 40.1279 28.3237 38.1482C28.3237 34.0783 34.1601 31.8538 37.8009 35.2393C38.4012 35.7974 39.3384 37.4058 39.6306 38.1482C42.4764 45.3825 35.4817 48.9549 34.1628 50.9187C35.2395 53.0695 37.0691 55.4783 38.4643 57.5607C39.7806 59.5272 41.0969 61.4937 42.4158 63.4602C42.7317 63.8683 42.6949 63.8156 42.7949 63.9157C42.7949 61.212 43.3688 58.6163 41.8946 56.4734C40.602 54.5991 39.7701 52.8826 38.9198 51.6453" fill="white"/>
</mask>
<g mask="url(#mask24_307_243)">
<path d="M45.4511 6.74463H1.69019V63.9158H45.4511V6.74463Z" fill="url(#paint24_linear_307_243)"/>
</g>
<mask id="mask25_307_243" style="mask-type:luminance" maskUnits="userSpaceOnUse" x="1" y="7" width="43" height="57">
<path d="M38.8512 51.69C45.3852 42.5181 44.2348 35.5445 40.3886 26.8808C44.7692 24.9695 42.9212 19.1384 42.7421 8.85041C42.7053 6.78649 42.5579 7.32353 41.5654 8.25019C40.8019 8.96362 40.1517 9.83236 39.7989 11.067C39.5041 12.1016 40.2281 15.0185 40.6651 15.9346C37.9219 15.2975 34.1942 13.8997 33.3624 19.2174C33.3624 19.9361 33.7046 21.0181 33.9889 21.5183C35.6079 24.3825 38.7433 22.9846 39.204 22.8767C38.5695 21.9079 37.1216 21.4156 38.1088 19.9572C39.1856 18.3645 43.1423 20.6258 39.5173 23.5374C38.5932 24.2798 37.9983 24.7273 37.019 25.3907C37.4086 27.2309 38.7696 29.0737 39.1908 30.8744C38.4274 30.2715 38.0246 29.5476 37.3059 28.7815C36.0607 27.4494 27.6444 19.7229 17.4644 17.8932C8.76114 16.3348 1.99021 9.45854 1.63482 9.36903C1.62429 11.841 3.13801 16.1136 4.3016 18.0091C4.96763 19.0937 5.64157 20.5863 6.30234 21.4788C8.25569 24.1061 12.4178 27.1756 15.4899 28.7104C17.7276 29.8266 21.1868 31.2613 23.8852 31.2587C22.9348 32.6856 22.2477 32.7619 21.3132 34.5283C16.7115 43.2 27.2785 51.5294 34.4417 46.5617C36.4109 45.1954 37.3823 42.5392 37.3823 41.4756C37.3823 39.5039 36.2924 38.2692 35.9317 36.7265C35.7159 37.0029 35.5 37.2794 35.2815 37.5531C35.2367 37.6163 35.1814 37.7111 35.1393 37.7769C34.9156 38.127 34.6865 38.564 34.4575 38.9142C31.9513 42.7261 28.2578 40.1699 28.2578 38.1902C28.2578 34.1203 34.0942 31.8958 37.735 35.2813C38.3352 35.8394 39.2724 37.4478 39.5646 38.1902C42.4104 45.4245 35.4157 48.9969 34.0968 50.9607C35.1735 53.1115 37.0032 55.5203 38.3984 57.6027C39.7147 59.5692 41.031 61.5357 42.3499 63.5022C42.6658 63.9103 42.6289 63.8576 42.729 63.9576C42.729 61.254 43.3029 58.6583 41.8286 56.5154C40.5361 54.641 39.7042 52.9246 38.8539 51.6873" fill="white"/>
</mask>
<g mask="url(#mask25_307_243)">
<path d="M45.3879 6.78662H1.62695V63.9578H45.3879V6.78662Z" fill="url(#paint25_linear_307_243)"/>
</g>
<mask id="mask26_307_243" style="mask-type:luminance" maskUnits="userSpaceOnUse" x="1" y="7" width="43" height="57">
<path d="M38.788 51.7324C45.322 42.5606 44.1716 35.587 40.3254 26.9233C44.706 25.012 42.8579 19.1809 42.6789 8.8929C42.6421 6.82897 42.4946 7.36601 41.5022 8.29267C40.7387 9.0061 40.0885 9.87484 39.7357 11.1095C39.4409 12.1441 40.1648 15.061 40.6018 15.9771C37.8587 15.34 34.131 13.9421 33.2991 19.2599C33.2991 19.9786 33.6413 21.0606 33.9257 21.5607C35.5447 24.425 38.6801 23.0271 39.1408 22.9191C38.5063 21.9504 37.0584 21.4581 38.0456 19.9996C39.1223 18.4069 43.0791 20.6683 39.454 23.5799C38.53 24.3223 37.935 24.7698 36.9557 25.4332C37.3454 27.2734 38.7064 29.1162 39.1276 30.9168C38.3642 30.314 37.9614 29.59 37.2427 28.824C35.9975 27.4919 27.5812 19.7653 17.4011 17.9357C8.69528 16.3772 1.92435 9.49838 1.57159 9.41151C1.56106 11.8835 3.07478 16.1561 4.23836 18.0515C4.9044 19.1362 5.57833 20.6288 6.23911 21.5213C8.19246 24.1485 12.3545 27.2207 15.4267 28.7529C17.6644 29.8691 21.1236 31.3038 23.8219 31.3012C22.8716 32.728 22.1845 32.8044 21.2499 34.5708C16.6482 43.2425 27.2153 51.5718 34.3785 46.6042C36.3476 45.2379 37.319 42.5817 37.319 41.5181C37.319 39.5463 36.2292 38.3117 35.8685 36.769L35.2183 37.5956C35.1735 37.6588 35.1182 37.7536 35.0761 37.8194C34.8523 38.1695 34.6233 38.6065 34.3943 38.9567C31.8881 42.7686 28.1946 40.2124 28.1946 38.2327C28.1946 34.1628 34.031 31.9383 37.6718 35.3237C38.272 35.8818 39.2092 37.4903 39.5014 38.2327C42.3472 45.467 35.3525 49.0393 34.0336 51.0032C35.1103 53.154 36.9399 55.5628 38.3352 57.6452L42.2867 63.5447C42.6026 63.9528 42.5657 63.9001 42.6657 64.0001C42.6657 61.2965 43.2396 58.7008 41.7654 56.5579C40.4728 54.6835 39.6409 52.9671 38.7906 51.7298" fill="white"/>
</mask>
<g mask="url(#mask26_307_243)">
<path d="M45.322 6.8291H1.56104V64.0003H45.322V6.8291Z" fill="url(#paint26_linear_307_243)"/>
</g>
<mask id="mask27_307_243" style="mask-type:luminance" maskUnits="userSpaceOnUse" x="0" y="0" width="45" height="62">
<path d="M39.8227 48.0443C46.8148 38.2302 45.5828 30.7695 41.4681 21.4977C46.1566 19.4522 44.177 13.213 43.9848 2.20632C43.9453 -0.00238848 43.7873 0.571508 42.7238 1.56398C41.9077 2.32742 41.2127 3.25671 40.8336 4.57825C40.5177 5.68393 41.2917 8.80613 41.7603 9.78808C38.825 9.10625 34.8367 7.61096 33.9469 13.2999C33.9469 14.0686 34.3128 15.2269 34.6182 15.764C36.3504 18.8283 39.7069 17.333 40.1965 17.2198C39.5173 16.1825 37.9694 15.6587 39.0251 14.0976C40.1755 12.3943 44.4113 14.811 40.5309 17.9279C39.541 18.723 38.9066 19.2021 37.8588 19.9102C38.2748 21.8794 39.7332 23.8512 40.1808 25.7756C39.3647 25.1306 38.9329 24.3566 38.1642 23.5379C36.8321 22.1137 27.8288 13.8475 16.9353 11.8889C7.6266 10.2172 0.381815 2.8592 0.0027276 2.76442C9.50505e-05 3.49891 0.121192 4.38081 0.326532 5.31537C0.86094 7.75048 1.95608 10.5436 2.85378 12.01C3.56457 13.1709 4.28589 14.7689 4.99668 15.7219C7.08429 18.5308 11.5412 21.8188 14.8266 23.4589C17.2196 24.6541 20.921 26.1889 23.8089 26.1836C22.7927 27.7105 22.0583 27.7921 21.0553 29.6823C16.1297 38.962 27.4392 47.8732 35.1026 42.5581C37.2086 41.097 38.2485 38.2565 38.2485 37.1166C38.2485 35.0079 37.0822 33.6864 36.6979 32.0358L36.0029 32.9203C35.9555 32.9888 35.8976 33.0888 35.8528 33.1599C35.6133 33.5337 35.3684 34.0023 35.1236 34.3761C32.4437 38.4539 28.4896 35.7187 28.4896 33.6021C28.4896 29.2453 34.734 26.8681 38.6302 30.4878C39.2725 31.0854 40.2755 32.8071 40.5888 33.5995C43.6347 41.3419 36.1503 45.1617 34.7366 47.2651C35.8897 49.566 37.8457 52.1432 39.3383 54.3704L43.5662 60.6832C43.9032 61.1202 43.8637 61.0623 43.9716 61.1702C43.9716 58.2771 44.5876 55.4997 43.0081 53.2094C41.626 51.2034 40.7362 49.3685 39.8254 48.0443" fill="white"/>
</mask>
<g mask="url(#mask27_307_243)">
<path d="M46.8147 0H0V61.1726H46.8147V0Z" fill="url(#paint27_linear_307_243)"/>
</g>
</g>
<defs>
<linearGradient id="paint0_linear_307_243" x1="73.5536" y1="34.7079" x2="80.6457" y2="59.5039" gradientUnits="userSpaceOnUse">
<stop stop-color="#533D8D"/>
<stop offset="1" stop-color="#DC258E"/>
</linearGradient>
<linearGradient id="paint1_linear_307_243" x1="7.25263" y1="16.3297" x2="42.263" y2="51.8034" gradientUnits="userSpaceOnUse">
<stop stop-color="#68499C"/>
<stop offset="0.56" stop-color="#684A9D"/>
<stop offset="1" stop-color="#624A9D"/>
</linearGradient>
<linearGradient id="paint2_linear_307_243" x1="7.18701" y1="16.3722" x2="42.2" y2="51.8458" gradientUnits="userSpaceOnUse">
<stop stop-color="#6E499C"/>
<stop offset="0.56" stop-color="#6E499C"/>
<stop offset="1" stop-color="#624B9E"/>
</linearGradient>
<linearGradient id="paint3_linear_307_243" x1="7.12372" y1="16.4142" x2="42.1341" y2="51.8852" gradientUnits="userSpaceOnUse">
<stop stop-color="#73489B"/>
<stop offset="0.56" stop-color="#74489C"/>
<stop offset="1" stop-color="#614B9E"/>
</linearGradient>
<linearGradient id="paint4_linear_307_243" x1="7.05786" y1="16.4535" x2="42.0708" y2="51.9272" gradientUnits="userSpaceOnUse">
<stop stop-color="#79479B"/>
<stop offset="0.56" stop-color="#79489B"/>
<stop offset="1" stop-color="#614B9E"/>
</linearGradient>
<linearGradient id="paint5_linear_307_243" x1="6.99457" y1="16.4952" x2="42.0049" y2="51.9689" gradientUnits="userSpaceOnUse">
<stop stop-color="#7D469A"/>
<stop offset="0.56" stop-color="#7E479B"/>
<stop offset="1" stop-color="#614C9E"/>
</linearGradient>
<linearGradient id="paint6_linear_307_243" x1="6.92895" y1="16.5377" x2="41.9419" y2="52.0114" gradientUnits="userSpaceOnUse">
<stop stop-color="#81459A"/>
<stop offset="0.56" stop-color="#82469A"/>
<stop offset="1" stop-color="#614C9E"/>
</linearGradient>
<linearGradient id="paint7_linear_307_243" x1="6.86303" y1="16.5802" x2="41.876" y2="52.0538" gradientUnits="userSpaceOnUse">
<stop stop-color="#864399"/>
<stop offset="0.56" stop-color="#88469A"/>
<stop offset="1" stop-color="#614C9E"/>
</linearGradient>
<linearGradient id="paint8_linear_307_243" x1="6.7998" y1="16.6222" x2="41.8128" y2="52.0958" gradientUnits="userSpaceOnUse">
<stop stop-color="#8B4298"/>
<stop offset="0.56" stop-color="#8D4499"/>
<stop offset="1" stop-color="#604C9E"/>
</linearGradient>
<linearGradient id="paint9_linear_307_243" x1="6.73413" y1="16.6642" x2="41.7471" y2="52.1378" gradientUnits="userSpaceOnUse">
<stop stop-color="#904198"/>
<stop offset="0.56" stop-color="#924499"/>
<stop offset="1" stop-color="#604C9E"/>
</linearGradient>
<linearGradient id="paint10_linear_307_243" x1="6.6709" y1="16.7062" x2="41.6812" y2="52.1798" gradientUnits="userSpaceOnUse">
<stop stop-color="#953F97"/>
<stop offset="0.56" stop-color="#974398"/>
<stop offset="1" stop-color="#604C9E"/>
</linearGradient>
<linearGradient id="paint11_linear_307_243" x1="6.60498" y1="16.7486" x2="41.6179" y2="52.2197" gradientUnits="userSpaceOnUse">
<stop stop-color="#9A3F96"/>
<stop offset="0.56" stop-color="#9D4298"/>
<stop offset="1" stop-color="#604C9E"/>
</linearGradient>
<linearGradient id="paint12_linear_307_243" x1="6.54199" y1="16.788" x2="41.5523" y2="52.2617" gradientUnits="userSpaceOnUse">
<stop stop-color="#9F3D95"/>
<stop offset="0.56" stop-color="#A14197"/>
<stop offset="1" stop-color="#604D9F"/>
</linearGradient>
<linearGradient id="paint13_linear_307_243" x1="6.47607" y1="16.8297" x2="41.489" y2="52.3034" gradientUnits="userSpaceOnUse">
<stop stop-color="#A33B94"/>
<stop offset="0.56" stop-color="#A63F96"/>
<stop offset="1" stop-color="#5F4D9F"/>
</linearGradient>
<linearGradient id="paint14_linear_307_243" x1="6.41284" y1="16.8722" x2="41.4232" y2="52.3458" gradientUnits="userSpaceOnUse">
<stop stop-color="#A83993"/>
<stop offset="0.56" stop-color="#AB3E96"/>
<stop offset="1" stop-color="#5F4D9F"/>
</linearGradient>
<linearGradient id="paint15_linear_307_243" x1="6.34716" y1="16.9142" x2="41.3601" y2="52.3878" gradientUnits="userSpaceOnUse">
<stop stop-color="#AD3792"/>
<stop offset="0.56" stop-color="#B03D95"/>
<stop offset="1" stop-color="#5F4D9F"/>
</linearGradient>
<linearGradient id="paint16_linear_307_243" x1="6.28393" y1="16.9562" x2="41.2943" y2="52.4298" gradientUnits="userSpaceOnUse">
<stop stop-color="#B23592"/>
<stop offset="0.56" stop-color="#B63C95"/>
<stop offset="1" stop-color="#5F4D9F"/>
</linearGradient>
<linearGradient id="paint17_linear_307_243" x1="6.21801" y1="16.9986" x2="41.231" y2="52.4723" gradientUnits="userSpaceOnUse">
<stop stop-color="#B73291"/>
<stop offset="0.56" stop-color="#BB3A94"/>
<stop offset="1" stop-color="#5F4D9F"/>
</linearGradient>
<linearGradient id="paint18_linear_307_243" x1="6.15503" y1="17.0406" x2="41.1654" y2="52.5117" gradientUnits="userSpaceOnUse">
<stop stop-color="#BC3090"/>
<stop offset="0.56" stop-color="#C03994"/>
<stop offset="1" stop-color="#5F4E9F"/>
</linearGradient>
<linearGradient id="paint19_linear_307_243" x1="6.08911" y1="17.08" x2="41.1021" y2="52.5537" gradientUnits="userSpaceOnUse">
<stop stop-color="#C12D8F"/>
<stop offset="0.56" stop-color="#C53693"/>
<stop offset="1" stop-color="#5E4E9F"/>
</linearGradient>
<linearGradient id="paint20_linear_307_243" x1="6.02582" y1="17.1222" x2="41.0361" y2="52.5958" gradientUnits="userSpaceOnUse">
<stop stop-color="#C6298E"/>
<stop offset="0.56" stop-color="#CB3492"/>
<stop offset="1" stop-color="#5E4E9F"/>
</linearGradient>
<linearGradient id="paint21_linear_307_243" x1="5.95996" y1="17.1642" x2="40.9729" y2="52.6378" gradientUnits="userSpaceOnUse">
<stop stop-color="#CB268E"/>
<stop offset="0.56" stop-color="#D03292"/>
<stop offset="1" stop-color="#5E4E9F"/>
</linearGradient>
<linearGradient id="paint22_linear_307_243" x1="5.89692" y1="17.2067" x2="40.9072" y2="52.6803" gradientUnits="userSpaceOnUse">
<stop stop-color="#CF228D"/>
<stop offset="0.56" stop-color="#D53091"/>
<stop offset="1" stop-color="#5E4FA0"/>
</linearGradient>
<linearGradient id="paint23_linear_307_243" x1="5.83105" y1="17.2486" x2="40.844" y2="52.7223" gradientUnits="userSpaceOnUse">
<stop stop-color="#D41E8C"/>
<stop offset="0.56" stop-color="#DA2E91"/>
<stop offset="1" stop-color="#5E4FA0"/>
</linearGradient>
<linearGradient id="paint24_linear_307_243" x1="5.76801" y1="17.2906" x2="40.7783" y2="52.7643" gradientUnits="userSpaceOnUse">
<stop stop-color="#D9178C"/>
<stop offset="0.56" stop-color="#DF2A90"/>
<stop offset="1" stop-color="#5D4FA0"/>
</linearGradient>
<linearGradient id="paint25_linear_307_243" x1="5.70215" y1="17.3326" x2="40.7151" y2="52.8063" gradientUnits="userSpaceOnUse">
<stop stop-color="#DE138B"/>
<stop offset="0.56" stop-color="#E5278F"/>
<stop offset="1" stop-color="#5C4FA0"/>
</linearGradient>
<linearGradient id="paint26_linear_307_243" x1="5.63886" y1="17.3725" x2="40.6492" y2="52.8461" gradientUnits="userSpaceOnUse">
<stop stop-color="#E3088A"/>
<stop offset="0.56" stop-color="#EC248F"/>
<stop offset="1" stop-color="#5C4FA0"/>
</linearGradient>
<linearGradient id="paint27_linear_307_243" x1="0" y1="30.585" x2="44.8113" y2="30.585" gradientUnits="userSpaceOnUse">
<stop stop-color="#E2038B"/>
<stop offset="1" stop-color="white"/>
</linearGradient>
<clipPath id="clip0_307_243">
<rect width="104.823" height="64" fill="white"/>
</clipPath>
</defs>
</svg>
