<svg width="126" height="40" viewBox="0 0 126 40" fill="none" xmlns="http://www.w3.org/2000/svg">
<g clip-path="url(#clip0_307_126)">
<path d="M14.3125 0H23.5598V6.60742L32.0124 0H42.2634L33.3088 6.99425L43.9518 18.8186H32.8541L26.7955 12.0805L23.5598 14.6367V18.8186H14.3125V0ZM62.6606 9.15316L53.5023 0H45.5828V18.8186H54.6105V10.7789L62.6606 18.8186L70.7056 10.7946V18.8186H79.7333V0H71.8138L62.6606 9.15316ZM83.0527 0H111.014V4.02509H92.3209V7.22426H107.684V11.2493H92.3209V18.8186H83.0527V0Z" fill="black"/>
<mask id="mask0_307_126" style="mask-type:luminance" maskUnits="userSpaceOnUse" x="0" y="21" width="126" height="19">
<path d="M93.2462 25.5776L90.8312 33.0528H90.7893L88.1495 25.5776H85.2065L89.3884 36.069L87.7418 39.9895H90.5071L95.9697 25.5672L93.2462 25.5776ZM122.582 25.5776L120.167 33.0528H120.125L117.486 25.5776H114.543L118.725 36.0795L117.094 40H119.859L125.321 25.5776H122.582ZM4.85625 28.6252C4.85625 30.4757 6.34083 31.0821 7.65813 31.5734C8.75588 31.9812 9.74909 32.3053 9.74909 33.1417C9.74909 34.0774 8.83429 34.3387 8.00314 34.3387C6.93734 34.2991 5.89182 34.0355 4.93466 33.5651V35.7606C5.99815 36.157 7.1307 36.3348 8.26451 36.2833C10.3555 36.2833 12.5301 35.4522 12.5301 32.9326C12.5301 30.6377 10.5593 30.1307 9.07475 29.6236C8.20178 29.3204 7.50653 28.9963 7.50653 28.3011C7.50653 27.6059 8.40042 27.2556 9.31521 27.2556C10.2385 27.2946 11.1441 27.5223 11.976 27.9247V25.8338C10.9992 25.4801 9.96721 25.3031 8.92838 25.311C6.87402 25.311 4.8667 26.3042 4.8667 28.6043M29.9948 27.2661C31.563 27.2661 32.4098 28.3847 32.4098 29.8275H27.4438C27.5431 28.505 28.3795 27.2661 29.9843 27.2661M24.6628 30.758C24.6628 34.0878 26.9368 36.3042 30.4914 36.3042C31.7422 36.3124 32.9835 36.0854 34.1506 35.6351V33.4553C33.1314 33.9999 31.997 34.2938 30.8416 34.3126C28.9911 34.3126 27.5484 33.3403 27.449 31.5525H34.9817V30.8782C34.9817 27.8306 33.518 25.3319 29.9634 25.3319C26.8949 25.3319 24.6628 27.5484 24.6628 30.758ZM39.2995 27.2033H39.2577V25.5776H36.7486V36.069H39.4929V29.2734C39.7706 28.777 40.178 28.3654 40.6715 28.0827C41.1651 27.8 41.7262 27.6569 42.2948 27.6686C42.7159 27.6719 43.1338 27.7407 43.5337 27.8725V25.4731C43.1341 25.3815 42.7257 25.3342 42.3157 25.3319C41.688 25.3231 41.0706 25.4923 40.535 25.8198C39.9993 26.1472 39.5674 26.6197 39.2891 27.1824M64.9869 32.8489C64.9869 31.3644 66.6545 31.0403 67.7313 31.0403C68.2734 31.079 68.8107 31.1682 69.3361 31.3068V33.0528C68.6489 33.7824 67.7201 34.2375 66.7224 34.3335C65.8285 34.3335 64.9765 33.8108 64.9765 32.8489M63.5755 26.2886V28.322C64.5404 27.6644 65.6802 27.3111 66.8479 27.3079C68.2697 27.3079 69.3048 27.9195 69.3048 29.2786V29.7439C68.6666 29.5426 68.003 29.4335 67.334 29.4198C65.6456 29.4198 62.3157 29.9425 62.3157 32.9953C62.3157 35.1281 63.9415 36.2886 66.1736 36.2886C66.8268 36.2827 67.4687 36.1166 68.0429 35.8049C68.617 35.4932 69.106 35.0454 69.4668 34.5008H69.5243V36.069H71.9237V29.6393C71.9237 26.6127 70.1777 25.3319 67.3706 25.3319C66.0533 25.3649 64.7609 25.6974 63.5912 26.3042M76.8165 27.0152H76.7747V25.5776H74.0512V36.069H76.7747V29.2734C77.0119 28.7764 77.3812 28.3541 77.8421 28.0526C78.303 27.7512 78.8379 27.5822 79.3884 27.564C80.7318 27.564 81.3591 28.437 81.3591 30.6116V36.069H84.0826V29.5191C84.0826 27.0831 82.9012 25.3372 80.1411 25.3372C79.4963 25.3462 78.8622 25.5031 78.2877 25.7959C77.7131 26.0886 77.2133 26.5093 76.827 27.0256M106.388 27.2504H106.325C106.072 26.6512 105.638 26.1457 105.085 25.8039C104.531 25.462 103.885 25.3007 103.236 25.3424C102.547 25.331 101.865 25.4902 101.252 25.8057C100.639 26.1213 100.114 26.5834 99.723 27.1511H99.6811V25.5829H97.1824V36.069H99.9059V29.0695C100.135 28.6376 100.473 28.2733 100.887 28.0128C101.3 27.7523 101.775 27.6048 102.263 27.5849C103.565 27.5849 103.952 28.7036 103.952 29.9634V36.069H106.639V29.2316C107.083 28.4579 107.815 27.5849 108.996 27.5849C110.298 27.5849 110.685 28.7036 110.685 29.9634V36.069H113.434V29.2734C113.434 27.0779 112.582 25.3529 109.775 25.3529C109.088 25.34 108.41 25.5099 107.81 25.8452C107.211 26.1804 106.711 26.669 106.362 27.2608M0 36.069H2.8437V21.5944H0V36.069ZM14.1819 21.5944V36.069H16.9054V30.4914H16.9472L21.0664 36.069H24.4171L19.7125 30.3816L23.9571 25.5881H20.8207L16.942 30.3189H16.9002V21.5944H14.1819ZM50.5646 21.5944V36.069H53.288V29.2734C53.5253 28.7764 53.8945 28.3541 54.3554 28.0526C54.8164 27.7512 55.3513 27.5822 55.9017 27.564C57.2452 27.564 57.8725 28.437 57.8725 30.6116V36.069H60.5959V29.5191C60.5959 27.0831 59.4198 25.3372 56.6545 25.3372C56.0065 25.342 55.3684 25.4964 54.7899 25.7884C54.2114 26.0804 53.7082 26.502 53.3194 27.0204H53.2776V21.5944H50.5646Z" fill="white"/>
</mask>
<g mask="url(#mask0_307_126)">
<path d="M125.321 21.5944H0V40H125.321V21.5944Z" fill="url(#paint0_linear_307_126)"/>
</g>
</g>
<defs>
<linearGradient id="paint0_linear_307_126" x1="-0.728071" y1="31.7926" x2="124.593" y2="31.7926" gradientUnits="userSpaceOnUse">
<stop stop-color="#0F1177"/>
<stop offset="0.01" stop-color="#0F1177"/>
<stop offset="0.11" stop-color="#1A1077"/>
<stop offset="0.27" stop-color="#390F78"/>
<stop offset="0.5" stop-color="#6A0C7A"/>
<stop offset="0.76" stop-color="#AD087D"/>
<stop offset="1" stop-color="#F0047F"/>
</linearGradient>
<clipPath id="clip0_307_126">
<rect width="125.321" height="40" fill="white"/>
</clipPath>
</defs>
</svg>
